<svg width="501" height="500" viewBox="0 0 501 500" fill="none" xmlns="http://www.w3.org/2000/svg">
<path d="M420.28 112.204C420.29 106.799 419.053 101.465 416.665 96.6164C414.278 91.7677 410.804 87.5351 406.514 84.2478C402.224 80.9604 397.234 78.7069 391.931 77.6624C386.628 76.618 381.156 76.8107 375.94 78.2258C370.724 79.6408 365.904 82.24 361.856 85.8211C357.808 89.4022 354.641 93.8688 352.6 98.8735C350.56 103.878 349.702 109.286 350.092 114.677C350.482 120.067 352.11 125.295 354.85 129.954V129.954L354.95 130.084C356.29 132.354 357.95 133.974 359.69 136.364L380.09 163.364C380.68 164.148 381.444 164.785 382.322 165.224C383.2 165.662 384.168 165.89 385.15 165.89C386.131 165.89 387.1 165.662 387.978 165.224C388.856 164.785 389.62 164.148 390.21 163.364L410.28 136.794C412.104 134.634 413.807 132.373 415.38 130.024L415.45 129.934C418.61 124.559 420.278 118.439 420.28 112.204V112.204ZM385.14 127.504C382.08 127.506 379.088 126.6 376.543 124.902C373.997 123.203 372.013 120.787 370.84 117.961C369.668 115.134 369.36 112.023 369.956 109.022C370.552 106.02 372.024 103.263 374.187 101.098C376.351 98.9339 379.107 97.4595 382.108 96.8618C385.109 96.2641 388.22 96.5699 391.048 97.7405C393.875 98.911 396.292 100.894 397.992 103.438C399.692 105.982 400.6 108.974 400.6 112.034C400.6 116.135 398.971 120.068 396.072 122.969C393.173 125.87 389.241 127.501 385.14 127.504V127.504Z" fill="#F5F5F5"/>
<path d="M193.12 485.07H53.9501C37.1401 485 22.9501 470.66 23.0001 453.84L24.4801 103.33C24.4959 99.3299 25.2997 95.3717 26.8458 91.6821C28.3918 87.9924 30.6498 84.6436 33.4906 81.8269C36.3314 79.0102 39.6994 76.781 43.4021 75.2664C47.1048 73.7519 51.0697 72.9819 55.0701 73.0003L194.88 73.6503C198.878 73.6674 202.834 74.4719 206.521 76.0181C210.209 77.5642 213.555 79.8216 216.37 82.6614C219.185 85.5011 221.412 88.8676 222.926 92.5684C224.439 96.2693 225.209 100.232 225.19 104.23L223.71 454.74C223.694 458.741 222.891 462.699 221.344 466.389C219.798 470.078 217.541 473.427 214.7 476.244C211.859 479.06 208.491 481.29 204.788 482.804C201.085 484.319 197.121 485.089 193.12 485.07Z" fill="#263238"/>
<path d="M194.69 86.9603L167.58 86.8803C166.696 86.8959 165.824 87.0855 165.014 87.4383C164.203 87.791 163.47 88.2999 162.856 88.936C162.242 89.5722 161.76 90.323 161.436 91.1456C161.113 91.9682 160.954 92.8465 160.97 93.7303V98.6503C161 100.435 160.32 102.158 159.081 103.442C157.842 104.726 156.144 105.466 154.36 105.5L101.52 105.25C100.636 105.227 99.7656 105.03 98.958 104.67C98.1503 104.31 97.4216 103.794 96.8133 103.153C96.205 102.511 95.7291 101.756 95.4129 100.93C95.0966 100.104 94.9461 99.2242 94.9701 98.3403V93.4303C95.0132 91.6441 94.3473 89.9134 93.118 88.6167C91.8888 87.32 90.1961 86.5627 88.4101 86.5103H78.8801L55.1501 86.4003C52.349 86.3885 49.573 86.9285 46.9806 87.9895C44.3882 89.0505 42.0301 90.6117 40.0411 92.584C38.0521 94.5564 36.471 96.9011 35.3881 99.4845C34.3053 102.068 33.7419 104.839 33.7301 107.64L32.2801 449.69C32.2562 455.346 34.4792 460.779 38.4603 464.796C42.4414 468.813 47.8548 471.084 53.5101 471.11L193.04 471.75C195.842 471.765 198.62 471.227 201.214 470.167C203.808 469.107 206.168 467.546 208.158 465.573C210.149 463.6 211.731 461.255 212.814 458.67C213.897 456.085 214.46 453.313 214.47 450.51L215.88 108.38C215.901 102.733 213.683 97.3068 209.711 93.2918C205.739 89.2768 200.338 87 194.69 86.9603V86.9603Z" fill="#F5F5F5"/>
<path d="M135.47 407.1C135.31 411.23 135.16 415.1 135.03 418.33H155.03L152.58 406.01L135.47 407.1Z" fill="#F5F5F5"/>
<path d="M54.0101 412.25L54.1801 418.33H133.03C133.16 414.91 133.31 411.13 133.46 407.23L54.0101 412.25Z" fill="#F5F5F5"/>
<path d="M153.63 405.95L156.09 418.32H193.05L192.6 403.49L153.63 405.95Z" fill="#F5F5F5"/>
<path d="M137.47 232.96L144.46 192.45L126.16 191.09V232.96H137.47Z" fill="#F5F5F5"/>
<path d="M52.3601 389.76L32.5001 397.54L32.4401 411.61L52.9501 410.31L52.3601 389.76Z" fill="#F5F5F5"/>
<path d="M52.2701 386.6L51.1901 348.87H51.1701V335.56L32.7501 337.51L32.5101 394.32L52.2601 386.58L52.2701 386.6Z" fill="#F5F5F5"/>
<path d="M51.1701 305.86L32.9001 303.44L32.7701 334.5L51.1701 332.55V305.86Z" fill="#F5F5F5"/>
<path d="M187.36 336.12L186.59 346.94L165.01 349.26L166.68 357.82L191.17 355.97L190.81 343.7L192.76 335.58L187.36 336.12Z" fill="#F5F5F5"/>
<path d="M148.46 359.19L165.67 357.89L161.92 338.69L146.9 340.21L148.46 359.19Z" fill="#F5F5F5"/>
<path d="M148.63 361.19L149.94 377.2L152.27 399.16L153.23 403.97L192.54 401.49L191.23 357.97L148.63 361.19Z" fill="#F5F5F5"/>
<path d="M80.9702 285.58L82.4802 288.17L52.1702 305.88V347.83L84.1702 345.56L145.88 339.31L143.62 311.82L84.7102 304.12L85.1002 301.12L143.37 308.73L139.55 262.2L81.8702 267.74L81.6802 265.74L139.38 260.2L137.38 235.92H81.8802L33.1702 244.78L32.9302 300.38L51.3602 302.88L80.9702 285.58ZM55.2702 343.79C55.2702 343.79 55.5002 309.21 55.2702 307.92L80.0102 294.76L83.2202 342.03L55.2702 343.79Z" fill="#F5F5F5"/>
<path d="M185.33 336.33L162.92 338.59L164.62 347.29L184.71 345.13L185.33 336.33Z" fill="#F5F5F5"/>
<path d="M135.75 399.69C135.68 401.51 135.61 403.31 135.55 405.09L152.23 404.03L151.37 399.73L135.75 399.69Z" fill="#F5F5F5"/>
<path d="M99.8202 232.96L102.76 219.63H125.16V191.02L55.1302 185.83V212.7L33.2602 217.65L33.1602 241.77L81.5902 232.96H99.8202Z" fill="#F5F5F5"/>
<path d="M146.55 153.33L145.95 150.88L172.69 140.3L155.3 105.38C154.97 105.434 154.635 105.461 154.3 105.46L124.75 105.32L125.55 154.19L146.55 153.33Z" fill="#F5F5F5"/>
<path d="M187.07 134.6V86.9303L167.58 86.8803C166.696 86.8959 165.824 87.0855 165.014 87.4383C164.203 87.791 163.47 88.2999 162.856 88.936C162.242 89.5722 161.76 90.323 161.436 91.1456C161.113 91.9682 160.954 92.8465 160.97 93.7303V98.6503C160.969 99.7489 160.71 100.832 160.213 101.812C159.716 102.791 158.996 103.641 158.11 104.29L175.51 139.23L187.07 134.6Z" fill="#F5F5F5"/>
<path d="M86.5502 136.65L84.2902 86.4503H78.8802L57.7302 86.3503L48.7302 131.24L86.5502 136.65ZM81.7302 91.5403L82.4502 132.42L54.3402 128.31L60.4902 91.5403H81.7302Z" fill="#F5F5F5"/>
<path d="M87.5701 136.8V137.22C87.5701 141.14 87.6901 148.22 87.7501 155.73L124.58 154.23L123.78 105.32L101.49 105.21C100.606 105.187 99.7356 104.99 98.928 104.63C98.1204 104.27 97.3916 103.754 96.7833 103.113C96.175 102.471 95.6991 101.716 95.3829 100.89C95.0666 100.064 94.9162 99.1842 94.9401 98.3003V93.3903C94.9832 91.6041 94.3173 89.8734 93.0881 88.5767C91.8588 87.28 90.1661 86.5227 88.3801 86.4703H85.2701L87.5301 136.8H87.5701Z" fill="#F5F5F5"/>
<path d="M45.7501 130.79L54.6701 86.3403C49.0991 86.4396 43.7883 88.7159 39.8746 92.6819C35.9609 96.6479 33.7554 101.988 33.7301 107.56L33.6301 129.72L33.7301 129.07L45.7501 130.79Z" fill="#F5F5F5"/>
<path d="M52.1301 185.61L33.4001 184.22L33.2701 214.57L52.1301 210.3V185.61Z" fill="#F5F5F5"/>
<path d="M45.5502 131.77L33.6302 130.06L33.4202 179.21L35.9902 179.4L45.5502 131.77Z" fill="#F5F5F5"/>
<path d="M83.3802 386.02L83.6902 346.57L52.1802 348.8L53.3002 387.45L83.3802 386.02Z" fill="#F5F5F5"/>
<path d="M89.1801 376.88L133.8 398.26C134.34 384.26 134.8 371.26 134.8 370.39L135.8 370.34L136.28 369.4C136.91 369.71 136.91 369.71 136.58 379.24C136.39 384.55 136.13 391.62 135.86 398.69H151.29L149.02 377.25L146.02 340.25L87.7101 346.13L89.1801 376.88Z" fill="#F5F5F5"/>
<path d="M198.57 311.44L198.06 306.23L144.57 311.8L146.82 339.21L193.01 334.55L198.57 311.44Z" fill="#F5F5F5"/>
<path d="M125.16 222.63H105.17L102.89 232.96H125.16V222.63Z" fill="#F5F5F5"/>
<path d="M190.31 226.12L140.26 222.66L138.26 234.48L140.37 260.14L193.15 255.06L190.31 226.12ZM142.1 234.46L144.79 227L188.26 229.75L190.77 251.09L143.57 256.69L142.1 234.46Z" fill="#F5F5F5"/>
<path d="M195.5 279.75L193.3 257.06L140.49 262.13L142.48 286.28L195.5 279.75Z" fill="#F5F5F5"/>
<path d="M53.0102 412.32L32.5202 413.61L32.4402 412.28L32.4102 418.32H53.1802L53.0102 412.32Z" fill="#F5F5F5"/>
<path d="M215.55 123.33L215.85 124.1L215.88 108.38C215.901 102.726 213.678 97.2939 209.697 93.2778C205.716 89.2616 200.305 86.9894 194.65 86.9603H188V134.24L215.55 123.33Z" fill="#F5F5F5"/>
<path d="M133.76 399.39L88.2101 377.56L86.6001 346.29L84.7001 346.48L84.3701 386.98L53.3201 388.45V389.35L53.9201 410.23L133.51 405.23C133.61 403.28 133.69 401.33 133.76 399.39ZM55.2701 391.03L98.7301 388.03L127 401.14L55.2701 405.02V391.03Z" fill="#F5F5F5"/>
<path d="M202.6 175.88L204.47 164.83C188.13 159 187 141.96 187.05 136.83L176.39 141.05L192.44 173.28L202.6 175.88Z" fill="#F5F5F5"/>
<path d="M144.32 308.81L166.53 306.5L162.16 286.88L142.72 289.28L144.32 308.81Z" fill="#F5F5F5"/>
<path d="M190.38 192.78H148.9L145.46 192.52L140.77 219.69L190.01 223.09L188.87 211.28L193.72 193.84L190.38 192.78Z" fill="#F5F5F5"/>
<path d="M189.37 187.78L189.89 174.78L173.59 142.05L148.31 152.05L157 187.73L189.37 187.78ZM172.6 146.07L187.54 174.49L185.38 183.35L159.82 182.35L153.43 155.47L172.6 146.07Z" fill="#F5F5F5"/>
<path d="M195.82 344.22L196.59 369.69L214.56 368.68L214.62 369.68L196.62 370.69L197.53 401.17L214.53 400.09L214.65 402.09L197.59 403.17L198.05 418.32H214.61L214.97 333.34L198.03 335.05L195.82 344.22Z" fill="#F5F5F5"/>
<path d="M86.5801 137.66L48.5201 132.2L39.0001 179.62L86.7501 183.16C86.9401 175.88 86.7701 153.46 86.5801 137.66Z" fill="#F5F5F5"/>
<path d="M149.18 187.78H154.94L146.79 154.32L125.61 155.19L126.12 186.07L149.18 187.78Z" fill="#F5F5F5"/>
<path d="M87.7202 183.23L125.11 186L124.61 155.23L87.7702 156.73C87.8802 167.14 87.8802 178.24 87.7202 183.23Z" fill="#F5F5F5"/>
<path d="M195.79 282.74L163.15 286.76L167.54 306.39L197.77 303.25L195.79 282.74Z" fill="#F5F5F5"/>
<path d="M204.64 163.78L206.73 151.38L215.73 152.08L215.85 125.37L188.06 136.37C187.49 155.16 199.3 161.77 204.64 163.78Z" fill="#F5F5F5"/>
<path d="M193.94 211.72L195.07 223.44L215.43 224.85L215.53 200.72L198.49 195.34L193.94 211.72Z" fill="#F5F5F5"/>
<path d="M203.62 311.79L198.28 334.02L214.97 332.33L215.07 309.02C209.95 307.67 205.48 306.57 203.07 306.11L203.62 311.79Z" fill="#F5F5F5"/>
<path d="M192.36 188.16L215.55 195.49L215.61 182.3L192.83 176.41L192.36 188.16Z" fill="#F5F5F5"/>
<path d="M202.78 303.06C204.65 303.34 208.19 304.06 215.08 305.91L215.3 254.91L198.3 256.55L202.78 303.06Z" fill="#F5F5F5"/>
<path d="M198.09 254.59L215.31 252.93L215.41 227.86L195.36 226.47L198.09 254.59Z" fill="#F5F5F5"/>
<path d="M206.56 164.41C209.556 165.339 212.596 166.117 215.67 166.74V154.08L208.34 153.51L206.56 164.41Z" fill="#F5F5F5"/>
<path d="M204.55 176.34L215.62 179.2L215.67 167.77C212.8 167.19 209.67 166.41 206.39 165.41L204.55 176.34Z" fill="#F5F5F5"/>
<path d="M53.0102 412.31L53.1802 418.31H54.1802L54.0102 412.23L133.46 407.23C133.31 411.13 133.16 414.91 133.03 418.33H135.03C135.16 415.1 135.31 411.23 135.47 407.1L152.62 406.01L155.07 418.33H156.07L153.61 405.95L192.61 403.49L193.06 418.33H198.06L197.6 403.17L214.66 402.09L214.54 400.09L197.54 401.17L196.63 370.69L214.63 369.69L214.57 368.69L196.57 369.69L195.8 344.22L198.01 335.05L214.95 333.34V332.34L198.26 334.03L203.6 311.8L203.05 306.12C205.46 306.58 209.93 307.68 215.05 309.03V305.88C208.16 304.06 204.62 303.31 202.75 303.03L198.25 256.55L215.25 254.91V252.91L198.03 254.57L195.3 226.45L215.3 227.84V224.84L194.94 223.43L193.81 211.71L198.36 195.33L215.36 200.71V195.48L192.17 188.15L192.64 176.4L215.42 182.29V179.19L204.35 176.33L206.19 165.4C209.51 166.4 212.6 167.18 215.47 167.76V166.76C212.396 166.137 209.356 165.359 206.36 164.43L208.19 153.53L215.52 154.1V152.1L206.52 151.4L204.43 163.8C199.09 161.8 187.28 155.18 187.85 136.38L215.64 125.38V124.11L215.34 123.34L187.86 134.22V86.9403H186.86V134.61L175.28 139.2L157.88 104.26C157.054 104.856 156.097 105.243 155.09 105.39L172.48 140.31L145.95 150.88L146.55 153.33L125.55 154.19L124.75 105.32H123.75L124.55 154.23L87.7202 155.73C87.6602 148.19 87.5802 141.14 87.5402 137.22V136.8L85.2802 86.4703H84.2802L86.5402 136.67L48.7102 131.24L57.7102 86.3503H55.1302H54.6502L45.7302 130.8L33.7302 129.08L33.6302 129.73V130.07L45.5502 131.78L35.9902 179.41L33.4202 179.22V184.22L52.1502 185.61V210.3L33.2902 214.57V217.65L55.1602 212.65V185.88L125.16 191.07V219.69H102.76L99.8202 233.01H81.5902L33.1602 241.82V244.87L81.8802 235.96H137.36L139.36 260.24L81.6602 265.78L81.8502 267.78L139.53 262.24L143.35 308.77L85.0802 301.16L84.6902 304.16L143.6 311.86L145.88 339.31L84.2102 345.53L52.2102 347.8V305.88L82.5202 288.2L81.0102 285.61L51.3602 302.88L32.8802 300.42V303.42L51.1702 305.88V332.57L32.7702 334.52V337.52L51.1902 335.57V348.88L52.2802 386.61L32.5302 394.35V397.57L52.3902 389.79L52.9802 410.34L32.4702 411.64V412.31L32.5502 413.64L53.0102 412.31ZM135.55 405.09C135.61 403.31 135.68 401.51 135.75 399.69H151.37L152.23 403.99L135.55 405.09ZM153.23 403.97L152.23 399.16L149.9 377.16L148.59 361.16L191.19 357.94L192.5 401.45L153.23 403.97ZM162.88 338.59L185.3 336.33L184.67 345.13L164.58 347.29L162.88 338.59ZM161.88 338.69L165.63 357.89L148.42 359.19L146.86 340.19L161.88 338.69ZM191.13 355.97L166.64 357.82L164.97 349.26L186.55 346.94L187.32 336.12L192.72 335.58L190.77 343.7L191.13 355.97ZM162.13 286.88L166.5 306.5L144.29 308.81L142.69 289.28L162.13 286.88ZM167.51 306.39L163.12 286.76L195.76 282.76L197.76 303.27L167.51 306.39ZM189.98 223.09L140.74 219.68L145.43 192.52L148.87 192.78H190.36L193.69 193.84L188.88 211.28L189.98 223.09ZM186.98 136.76C186.93 141.92 188.06 158.96 204.4 164.76L202.6 175.88L192.44 173.25L176.39 140.98L186.98 136.76ZM173.52 142.09L189.88 174.82L189.36 187.82H157L148.31 152.14L173.52 142.09ZM146.72 154.32L154.87 187.78H149.18L126.12 186.08L125.61 155.19L146.72 154.32ZM124.54 155.23L125.04 186L87.6502 183.23C87.8102 178.23 87.7802 167.14 87.6502 156.73L124.54 155.23ZM48.4502 132.23L86.5102 137.69C86.7002 153.49 86.8702 175.89 86.6802 183.19L38.9302 179.65L48.4502 132.23ZM144.39 192.48L137.39 232.99H126.16V191.09L144.39 192.48ZM105.1 222.67H125.1V232.99H102.88L105.1 222.67ZM138.1 234.51L140.1 222.69L190.15 226.15L192.95 255.09L140.17 260.17L138.1 234.51ZM193.18 257.09L195.38 279.78L142.38 286.32L140.38 262.16L193.18 257.09ZM144.45 311.83L197.94 306.26L198.45 311.47L192.89 334.58L146.7 339.24L144.45 311.83ZM148.83 377.32L151.1 398.76H135.79C136.06 391.69 136.32 384.62 136.51 379.31C136.84 369.78 136.84 369.78 136.21 369.47L135.73 370.41L134.73 370.46C134.73 371.29 134.3 384.36 133.73 398.33L89.1802 376.88L87.6002 346.15L145.88 340.31L148.83 377.32ZM83.5702 346.6L83.2602 386.05L53.1802 387.48L52.0602 348.83L83.5702 346.6ZM53.2302 389.4V388.5L84.2802 387.03L84.6102 346.53L86.5102 346.34L88.1202 377.61L133.67 399.44C133.6 401.38 133.52 403.33 133.45 405.27L53.8602 410.27L53.2302 389.4Z" fill="white"/>
<path d="M98.7301 387.98L55.2701 391.02V404.98L127.01 401.09L98.7301 387.98Z" fill="#EBEBEB"/>
<path d="M188.26 229.75L144.79 227L142.1 234.46L143.57 256.69L190.77 251.09L188.26 229.75Z" fill="#EBEBEB"/>
<path d="M53.5101 471.11L193.04 471.75C195.842 471.765 198.62 471.227 201.214 470.167C203.808 469.107 206.168 467.546 208.159 465.573C210.149 463.6 211.731 461.255 212.814 458.67C213.897 456.085 214.46 453.313 214.47 450.51L214.61 418.33H32.4101L32.3101 442.67V450.33C32.4504 455.87 34.742 461.137 38.6994 465.016C42.6567 468.895 47.9688 471.081 53.5101 471.11V471.11Z" fill="#EBEBEB"/>
<path d="M82.4501 132.42L81.7301 91.5403H60.5001L54.3401 128.31L82.4501 132.42Z" fill="#EBEBEB"/>
<path d="M185.38 183.35L187.54 174.49L172.6 146.07L153.43 155.51L159.82 182.39L185.38 183.35Z" fill="#EBEBEB"/>
<path d="M55.2701 307.88C55.5001 309.17 55.2701 343.75 55.2701 343.75L83.2701 341.99L80.0601 294.72L55.2701 307.88Z" fill="#EBEBEB"/>
<path d="M148.47 336L146.99 314.57L194.92 308.41V312.11L189.12 331.82L148.47 336Z" fill="#EBEBEB"/>
<path d="M113.02 158.27C113.02 159.425 112.678 160.554 112.036 161.515C111.394 162.475 110.482 163.224 109.415 163.666C108.348 164.108 107.174 164.223 106.041 163.998C104.908 163.773 103.867 163.217 103.051 162.4C102.234 161.583 101.678 160.543 101.452 159.41C101.227 158.277 101.343 157.103 101.785 156.035C102.227 154.968 102.975 154.056 103.936 153.415C104.896 152.773 106.025 152.43 107.18 152.43C108.729 152.43 110.214 153.046 111.31 154.141C112.405 155.236 113.02 156.721 113.02 158.27V158.27Z" fill="#53B175"/>
<g opacity="0.6">
<path opacity="0.6" d="M113.01 158.02C113.061 159.175 112.767 160.318 112.168 161.306C111.568 162.293 110.689 163.081 109.642 163.569C108.594 164.057 107.426 164.223 106.284 164.047C105.142 163.87 104.078 163.359 103.227 162.578C102.376 161.797 101.775 160.78 101.502 159.658C101.228 158.535 101.294 157.357 101.69 156.271C102.087 155.186 102.796 154.243 103.729 153.561C104.662 152.879 105.776 152.489 106.93 152.44C108.476 152.375 109.985 152.926 111.124 153.973C112.264 155.019 112.943 156.475 113.01 158.02V158.02Z" fill="white"/>
</g>
<path d="M107.18 161.95C109.323 161.95 111.06 160.213 111.06 158.07C111.06 155.927 109.323 154.19 107.18 154.19C105.037 154.19 103.3 155.927 103.3 158.07C103.3 160.213 105.037 161.95 107.18 161.95Z" fill="#53B175"/>
<path d="M197.41 391.42C197.402 391.912 197.25 392.39 196.972 392.795C196.693 393.2 196.302 393.514 195.846 393.698C195.391 393.882 194.891 393.928 194.409 393.829C193.928 393.731 193.486 393.493 193.139 393.144C192.792 392.796 192.556 392.354 192.459 391.872C192.363 391.39 192.41 390.89 192.596 390.435C192.782 389.98 193.097 389.59 193.504 389.313C193.91 389.037 194.389 388.886 194.88 388.88C195.214 388.876 195.546 388.939 195.855 389.066C196.165 389.192 196.446 389.379 196.682 389.616C196.918 389.853 197.104 390.134 197.229 390.444C197.354 390.754 197.416 391.086 197.41 391.42V391.42Z" fill="#53B175"/>
<path d="M193.42 390.61L192.81 376.61L150.69 378.66C149.586 378.712 148.487 378.477 147.5 377.98L87.7501 347.8C87.0701 347.455 86.4931 346.937 86.077 346.298C85.6609 345.659 85.4206 344.922 85.3801 344.16L77.2401 186.42C77.2205 186.047 77.2808 185.673 77.4171 185.325C77.5534 184.976 77.7624 184.661 78.0302 184.4C78.2981 184.138 78.6186 183.937 78.9704 183.81C79.3222 183.682 79.6971 183.631 80.0701 183.66L105.68 185.55V157.55H108.68V185.93C108.687 186.293 108.62 186.653 108.482 186.988C108.345 187.324 108.14 187.627 107.88 187.88C107.611 188.125 107.295 188.312 106.951 188.43C106.607 188.549 106.243 188.596 105.88 188.57L80.2901 186.68L88.4001 344.01C88.4148 344.243 88.4899 344.468 88.6179 344.662C88.7459 344.857 88.9225 345.015 89.1301 345.12L148.88 375.32C149.403 375.584 149.985 375.708 150.57 375.68L193.05 373.61C193.753 373.58 194.439 373.828 194.96 374.3C195.221 374.535 195.433 374.82 195.582 375.137C195.732 375.455 195.816 375.799 195.83 376.15L196.44 390.48L193.42 390.61Z" fill="#53B175"/>
<path d="M82.1401 262.49C86.3154 262.49 89.7001 259.106 89.7001 254.93C89.7001 250.755 86.3154 247.37 82.1401 247.37C77.9649 247.37 74.5801 250.755 74.5801 254.93C74.5801 259.106 77.9649 262.49 82.1401 262.49Z" fill="#53B175"/>
<path d="M82.1401 260.18C85.0396 260.18 87.3901 257.83 87.3901 254.93C87.3901 252.031 85.0396 249.68 82.1401 249.68C79.2406 249.68 76.8901 252.031 76.8901 254.93C76.8901 257.83 79.2406 260.18 82.1401 260.18Z" fill="#FAFAFA"/>
<path d="M82.1401 260.56C81.0262 260.562 79.9367 260.234 79.0096 259.616C78.0824 258.999 77.3592 258.12 76.9316 257.092C76.5039 256.063 76.391 254.931 76.6071 253.838C76.8232 252.745 77.3586 251.741 78.1456 250.953C78.9326 250.164 79.9357 249.627 81.0281 249.409C82.1205 249.191 83.253 249.302 84.2823 249.728C85.3116 250.154 86.1915 250.875 86.8106 251.801C87.4297 252.727 87.7601 253.816 87.7601 254.93C87.7575 256.421 87.1649 257.85 86.1118 258.905C85.0587 259.96 83.6307 260.555 82.1401 260.56V260.56ZM82.1401 250.05C81.1745 250.048 80.23 250.333 79.4262 250.868C78.6224 251.403 77.9954 252.164 77.6245 253.056C77.2536 253.947 77.1555 254.929 77.3427 255.876C77.5298 256.824 77.9938 257.694 78.6759 258.377C79.358 259.061 80.2275 259.527 81.1744 259.716C82.1213 259.905 83.103 259.809 83.9953 259.44C84.8876 259.071 85.6503 258.445 86.187 257.643C86.7237 256.84 87.0101 255.896 87.0101 254.93C87.0075 253.639 86.4939 252.4 85.5814 251.486C84.669 250.572 83.4318 250.056 82.1401 250.05V250.05Z" fill="#53B175"/>
<path d="M126.67 223.22H90.6701C89.8294 223.22 89.0231 223.554 88.4286 224.149C87.8341 224.743 87.5001 225.55 87.5001 226.39V239.39C87.5001 240.231 87.8341 241.037 88.4286 241.632C89.0231 242.226 89.8294 242.56 90.6701 242.56H91.0901V245.67L94.7001 242.56H126.7C127.541 242.56 128.347 242.226 128.942 241.632C129.536 241.037 129.87 240.231 129.87 239.39V226.39C129.87 225.971 129.787 225.557 129.626 225.17C129.465 224.784 129.229 224.433 128.931 224.138C128.634 223.843 128.281 223.61 127.892 223.453C127.504 223.295 127.089 223.216 126.67 223.22V223.22Z" fill="#53B175"/>
<g opacity="0.4">
<path opacity="0.4" d="M126.67 223.22H90.6701C89.8294 223.22 89.0231 223.554 88.4286 224.149C87.8341 224.743 87.5001 225.55 87.5001 226.39V239.39C87.5001 240.231 87.8341 241.037 88.4286 241.632C89.0231 242.226 89.8294 242.56 90.6701 242.56H91.0901V245.67L94.7001 242.56H126.7C127.541 242.56 128.347 242.226 128.942 241.632C129.536 241.037 129.87 240.231 129.87 239.39V226.39C129.87 225.971 129.787 225.557 129.626 225.17C129.465 224.784 129.229 224.433 128.931 224.138C128.634 223.843 128.281 223.61 127.892 223.453C127.504 223.295 127.089 223.216 126.67 223.22V223.22Z" fill="white"/>
</g>
<path d="M95.6001 232.7C95.5842 232.271 95.697 231.846 95.924 231.48C96.151 231.115 96.4819 230.826 96.8743 230.65C97.2667 230.474 97.7028 230.419 98.1266 230.492C98.5505 230.565 98.9428 230.763 99.2533 231.061C99.5638 231.359 99.7784 231.742 99.8696 232.163C99.9607 232.583 99.9243 233.021 99.765 233.42C99.6057 233.82 99.3307 234.163 98.9753 234.405C98.6199 234.647 98.2002 234.778 97.7701 234.78C97.4891 234.794 97.2083 234.75 96.9449 234.652C96.6814 234.553 96.4408 234.402 96.2377 234.207C96.0346 234.012 95.8733 233.778 95.7637 233.519C95.6541 233.26 95.5984 232.982 95.6001 232.7ZM99.3401 232.7C99.3421 232.387 99.2509 232.08 99.078 231.819C98.9052 231.557 98.6585 231.353 98.3694 231.233C98.0803 231.112 97.7618 231.08 97.4543 231.14C97.1469 231.201 96.8645 231.352 96.6429 231.573C96.4213 231.795 96.2707 232.077 96.21 232.385C96.1494 232.692 96.1815 233.01 96.3023 233.3C96.4231 233.589 96.6272 233.835 96.8886 234.008C97.1499 234.181 97.4568 234.272 97.7701 234.27C97.9782 234.277 98.1854 234.241 98.3791 234.165C98.5727 234.089 98.7486 233.973 98.8958 233.826C99.043 233.679 99.1584 233.503 99.2348 233.309C99.3112 233.116 99.3471 232.908 99.3401 232.7V232.7Z" fill="white"/>
<path d="M103.88 233.2C103.891 233.408 103.859 233.615 103.786 233.81C103.712 234.004 103.599 234.181 103.453 234.328C103.307 234.476 103.131 234.592 102.938 234.668C102.745 234.744 102.538 234.779 102.33 234.77C102.118 234.781 101.907 234.739 101.715 234.648C101.523 234.557 101.357 234.421 101.23 234.25V234.74H100.69V230.42H101.25V232.12C101.379 231.96 101.544 231.832 101.732 231.747C101.92 231.662 102.124 231.622 102.33 231.63C102.538 231.622 102.745 231.656 102.938 231.733C103.131 231.809 103.307 231.924 103.453 232.072C103.599 232.22 103.712 232.397 103.786 232.591C103.859 232.785 103.891 232.993 103.88 233.2V233.2ZM103.32 233.2C103.305 233.007 103.233 232.822 103.114 232.668C102.995 232.515 102.834 232.399 102.651 232.335C102.467 232.272 102.269 232.263 102.081 232.31C101.892 232.357 101.722 232.458 101.59 232.601C101.458 232.743 101.37 232.921 101.337 233.113C101.305 233.304 101.329 233.501 101.406 233.679C101.484 233.857 101.611 234.009 101.774 234.116C101.936 234.223 102.126 234.28 102.32 234.28C102.462 234.286 102.603 234.262 102.735 234.21C102.866 234.157 102.985 234.077 103.084 233.975C103.182 233.873 103.258 233.751 103.305 233.617C103.353 233.484 103.372 233.342 103.36 233.2H103.32Z" fill="white"/>
<path d="M103.63 235.71L103.81 235.28C103.94 235.384 104.104 235.437 104.27 235.43C104.56 235.43 104.73 235.24 104.73 234.89V231.66H105.28V234.88C105.292 235.015 105.275 235.15 105.229 235.277C105.183 235.404 105.11 235.519 105.014 235.615C104.919 235.71 104.804 235.783 104.677 235.829C104.55 235.875 104.415 235.893 104.28 235.88C104.051 235.892 103.824 235.833 103.63 235.71V235.71ZM104.63 230.71C104.63 230.662 104.64 230.615 104.658 230.57C104.677 230.526 104.705 230.486 104.739 230.452C104.774 230.419 104.814 230.392 104.859 230.375C104.904 230.357 104.952 230.349 105 230.35C105.048 230.348 105.096 230.355 105.142 230.371C105.187 230.387 105.229 230.412 105.264 230.445C105.3 230.478 105.328 230.517 105.348 230.561C105.368 230.605 105.379 230.652 105.38 230.7C105.382 230.75 105.373 230.8 105.354 230.846C105.335 230.892 105.307 230.934 105.271 230.969C105.236 231.004 105.193 231.031 105.146 231.048C105.1 231.066 105.05 231.073 105 231.07C104.951 231.073 104.901 231.066 104.855 231.048C104.809 231.031 104.767 231.003 104.732 230.968C104.697 230.933 104.67 230.891 104.652 230.845C104.635 230.799 104.627 230.75 104.63 230.7V230.71Z" fill="white"/>
<path d="M109.12 233.38H106.62C106.632 233.514 106.672 233.643 106.735 233.761C106.798 233.88 106.885 233.984 106.989 234.068C107.094 234.152 107.214 234.214 107.343 234.25C107.472 234.287 107.607 234.297 107.74 234.28C107.906 234.286 108.072 234.256 108.225 234.192C108.379 234.128 108.517 234.032 108.63 233.91L108.94 234.27C108.711 234.499 108.422 234.657 108.106 234.726C107.789 234.795 107.46 234.772 107.157 234.659C106.854 234.546 106.589 234.349 106.395 234.091C106.2 233.832 106.084 233.523 106.06 233.2C106.052 232.994 106.086 232.787 106.161 232.595C106.235 232.402 106.349 232.226 106.494 232.079C106.64 231.932 106.814 231.816 107.006 231.739C107.198 231.662 107.403 231.625 107.61 231.63C107.817 231.624 108.022 231.661 108.213 231.74C108.404 231.818 108.577 231.935 108.72 232.084C108.863 232.232 108.974 232.41 109.044 232.604C109.115 232.798 109.144 233.004 109.13 233.21C109.132 233.267 109.128 233.324 109.12 233.38ZM106.62 232.98H108.62C108.62 232.715 108.515 232.461 108.327 232.273C108.14 232.086 107.885 231.98 107.62 231.98C107.355 231.98 107.101 232.086 106.913 232.273C106.725 232.461 106.62 232.715 106.62 232.98Z" fill="white"/>
<path d="M109.62 233.2C109.616 232.988 109.655 232.777 109.736 232.58C109.817 232.384 109.938 232.206 110.091 232.059C110.245 231.911 110.427 231.797 110.626 231.723C110.825 231.649 111.038 231.618 111.25 231.63C111.498 231.614 111.746 231.666 111.966 231.781C112.186 231.895 112.371 232.068 112.5 232.28L112.08 232.56C111.989 232.421 111.864 232.307 111.717 232.229C111.571 232.15 111.407 232.11 111.24 232.11C110.97 232.136 110.72 232.262 110.538 232.462C110.355 232.663 110.254 232.924 110.254 233.195C110.254 233.466 110.355 233.728 110.538 233.928C110.72 234.129 110.97 234.254 111.24 234.28C111.406 234.282 111.569 234.243 111.716 234.166C111.862 234.089 111.987 233.977 112.08 233.84L112.5 234.11C112.371 234.324 112.187 234.498 111.967 234.614C111.747 234.73 111.499 234.784 111.25 234.77C111.038 234.781 110.826 234.749 110.628 234.674C110.429 234.6 110.248 234.486 110.095 234.339C109.942 234.192 109.821 234.015 109.739 233.819C109.658 233.623 109.617 233.412 109.62 233.2V233.2Z" fill="white"/>
<path d="M115 234.56C114.803 234.704 114.564 234.778 114.32 234.77C114.184 234.793 114.044 234.783 113.912 234.74C113.781 234.698 113.661 234.625 113.563 234.527C113.466 234.429 113.393 234.31 113.35 234.178C113.308 234.047 113.298 233.907 113.32 233.77V232.07H112.79V231.62H113.32V230.94H113.88V231.62H114.76V232.07H113.88V233.74C113.869 233.808 113.874 233.876 113.894 233.942C113.913 234.007 113.948 234.067 113.994 234.117C114.04 234.167 114.097 234.206 114.16 234.231C114.224 234.256 114.292 234.266 114.36 234.26C114.515 234.263 114.667 234.214 114.79 234.12L115 234.56Z" fill="white"/>
<path d="M115.57 230.7C115.571 230.652 115.582 230.604 115.602 230.559C115.622 230.515 115.65 230.475 115.686 230.442C115.721 230.408 115.762 230.382 115.808 230.365C115.853 230.347 115.902 230.339 115.95 230.34C115.998 230.338 116.046 230.345 116.092 230.361C116.137 230.377 116.179 230.402 116.214 230.435C116.25 230.468 116.278 230.507 116.298 230.551C116.318 230.595 116.329 230.642 116.33 230.69C116.33 230.791 116.29 230.888 116.219 230.959C116.148 231.03 116.051 231.07 115.95 231.07C115.849 231.07 115.753 231.03 115.681 230.959C115.61 230.888 115.57 230.791 115.57 230.69V230.7ZM115.67 231.7H116.23V234.78H115.67V231.7Z" fill="white"/>
<path d="M120.02 231.66L118.67 234.74H118.1L116.75 231.66H117.34L118.34 234.13L119.42 231.66H120.02Z" fill="white"/>
<path d="M123.23 233.38H120.73C120.743 233.514 120.782 233.643 120.845 233.761C120.908 233.88 120.995 233.984 121.099 234.068C121.204 234.152 121.324 234.214 121.453 234.25C121.582 234.287 121.717 234.297 121.85 234.28C122.016 234.286 122.182 234.256 122.335 234.192C122.489 234.128 122.627 234.032 122.74 233.91L123.04 234.27C122.889 234.439 122.702 234.572 122.492 234.658C122.283 234.745 122.056 234.783 121.83 234.77C121.616 234.786 121.401 234.756 121.198 234.684C120.996 234.612 120.811 234.498 120.655 234.35C120.499 234.203 120.375 234.024 120.292 233.826C120.208 233.628 120.167 233.415 120.17 233.2C120.162 232.994 120.196 232.787 120.271 232.595C120.346 232.402 120.459 232.226 120.604 232.079C120.75 231.932 120.924 231.816 121.116 231.739C121.308 231.662 121.513 231.625 121.72 231.63C121.927 231.624 122.132 231.661 122.323 231.74C122.514 231.818 122.687 231.935 122.83 232.084C122.973 232.232 123.084 232.41 123.154 232.604C123.225 232.798 123.254 233.004 123.24 233.21C123.242 233.267 123.238 233.324 123.23 233.38ZM120.73 232.98H122.73C122.73 232.715 122.625 232.461 122.437 232.273C122.25 232.086 121.995 231.98 121.73 231.98C121.465 231.98 121.211 232.086 121.023 232.273C120.836 232.461 120.73 232.715 120.73 232.98Z" fill="white"/>
<path d="M114.78 138.66C114.789 137.506 114.531 136.365 114.025 135.327C113.52 134.289 112.78 133.382 111.866 132.677C110.951 131.972 109.886 131.489 108.753 131.265C107.621 131.04 106.452 131.081 105.338 131.384C104.223 131.687 103.195 132.244 102.331 133.011C101.468 133.778 100.795 134.734 100.363 135.805C99.9312 136.876 99.7533 138.032 99.843 139.183C99.9327 140.335 100.288 141.449 100.88 142.44V142.44C101.17 142.92 101.53 143.27 101.88 143.78L106.23 149.53C106.356 149.698 106.519 149.834 106.706 149.928C106.894 150.022 107.101 150.07 107.31 150.07C107.52 150.07 107.726 150.022 107.914 149.928C108.101 149.834 108.264 149.698 108.39 149.53L112.66 143.87C113.05 143.411 113.414 142.931 113.75 142.43V142.43C114.422 141.288 114.778 139.986 114.78 138.66V138.66ZM107.3 141.88C106.647 141.882 106.008 141.69 105.464 141.329C104.92 140.968 104.496 140.453 104.244 139.85C103.993 139.247 103.926 138.583 104.052 137.943C104.179 137.302 104.492 136.713 104.953 136.25C105.414 135.788 106.002 135.473 106.643 135.344C107.283 135.216 107.947 135.281 108.551 135.531C109.154 135.78 109.67 136.203 110.033 136.746C110.396 137.289 110.59 137.927 110.59 138.58C110.59 139.454 110.244 140.292 109.627 140.91C109.01 141.529 108.174 141.878 107.3 141.88V141.88Z" fill="#53B175"/>
<path d="M66.3202 433.53H64.9302V433.02H68.2902V433.53H66.8802V437.09H66.3002L66.3202 433.53Z" fill="#263238"/>
<path d="M68.2401 435.55C68.2362 435.234 68.3264 434.923 68.4993 434.657C68.6723 434.392 68.9202 434.183 69.2116 434.059C69.503 433.934 69.8248 433.899 70.1362 433.958C70.4476 434.017 70.7345 434.166 70.9607 434.388C71.1869 434.61 71.342 434.894 71.4065 435.205C71.471 435.515 71.442 435.837 71.323 436.131C71.204 436.425 71.0006 436.676 70.7383 436.854C70.4761 437.032 70.167 437.128 69.8501 437.13C69.6383 437.142 69.4265 437.109 69.2281 437.034C69.0296 436.959 68.849 436.843 68.6976 436.694C68.5462 436.546 68.4274 436.367 68.3486 436.17C68.2699 435.974 68.2329 435.762 68.2401 435.55V435.55ZM70.8801 435.55C70.8801 435.276 70.7711 435.013 70.577 434.818C70.3829 434.624 70.1196 434.515 69.8451 434.515C69.5706 434.515 69.3074 434.624 69.1133 434.818C68.9192 435.013 68.8101 435.276 68.8101 435.55C68.8101 435.825 68.9192 436.088 69.1133 436.282C69.3074 436.476 69.5706 436.585 69.8451 436.585C70.1196 436.585 70.3829 436.476 70.577 436.282C70.7711 436.088 70.8801 435.825 70.8801 435.55Z" fill="#263238"/>
<path d="M73.9501 436.88C73.7609 437.033 73.5228 437.111 73.2801 437.1C73.1441 437.121 73.0053 437.109 72.8747 437.066C72.7442 437.022 72.6255 436.949 72.5283 436.852C72.4311 436.755 72.358 436.636 72.3149 436.506C72.2718 436.375 72.2599 436.236 72.2801 436.1V434.41H71.7601V433.95H72.2801V433.28H72.8801V433.95H73.7601V434.41H72.8801V436.08C72.8693 436.148 72.8739 436.216 72.8936 436.282C72.9133 436.347 72.9475 436.407 72.9938 436.457C73.04 436.507 73.097 436.546 73.1604 436.571C73.2239 436.596 73.2922 436.606 73.3601 436.6C73.519 436.598 73.673 436.546 73.8001 436.45L73.9501 436.88Z" fill="#263238"/>
<path d="M77.0701 435.23V437.09H76.5401V436.69C76.4218 436.839 76.2689 436.958 76.0947 437.034C75.9204 437.111 75.73 437.144 75.5401 437.13C74.8401 437.13 74.4001 436.76 74.4001 436.22C74.4001 435.68 74.7201 435.32 75.6301 435.32H76.5201V435.21C76.5201 434.74 76.2501 434.46 75.6901 434.46C75.3266 434.449 74.9712 434.57 74.6901 434.8L74.4501 434.38C74.8181 434.104 75.2702 433.962 75.7301 433.98C75.905 433.95 76.0845 433.961 76.2546 434.011C76.4247 434.062 76.5807 434.152 76.7105 434.273C76.8403 434.394 76.9403 434.543 77.0027 434.709C77.0651 434.875 77.0882 435.054 77.0701 435.23V435.23ZM76.5101 436.15V435.72H75.6501C75.1001 435.72 74.9401 435.94 74.9401 436.2C74.9401 436.46 75.1901 436.7 75.6201 436.7C75.8076 436.714 75.9946 436.669 76.1545 436.57C76.3144 436.471 76.4389 436.324 76.5101 436.15V436.15Z" fill="#263238"/>
<path d="M78.1002 432.78H78.6602V437.09H78.1002V432.78Z" fill="#263238"/>
<path d="M84.1901 432.78V437.09H83.6601V436.6C83.5336 436.771 83.3673 436.909 83.1756 437.001C82.984 437.094 82.7727 437.138 82.5601 437.13C82.1641 437.099 81.7945 436.919 81.5249 436.627C81.2554 436.335 81.1057 435.953 81.1057 435.555C81.1057 435.158 81.2554 434.775 81.5249 434.483C81.7945 434.192 82.1641 434.012 82.5601 433.98C82.7669 433.972 82.9728 434.013 83.1607 434.099C83.3485 434.186 83.5129 434.317 83.6401 434.48V432.78H84.1901ZM83.6401 435.55C83.6227 435.357 83.5495 435.174 83.4296 435.021C83.3097 434.869 83.1481 434.755 82.9645 434.693C82.781 434.631 82.5833 434.624 82.3956 434.672C82.208 434.72 82.0383 434.822 81.9073 434.964C81.7763 435.107 81.6896 435.285 81.6578 435.476C81.6259 435.667 81.6503 435.863 81.7279 436.041C81.8055 436.218 81.9331 436.37 82.095 436.476C82.257 436.582 82.4463 436.64 82.6401 436.64C82.7794 436.641 82.9172 436.612 83.0448 436.557C83.1724 436.501 83.2869 436.419 83.381 436.316C83.4752 436.214 83.5468 436.093 83.5915 435.961C83.6361 435.829 83.6526 435.689 83.6401 435.55V435.55Z" fill="#263238"/>
<path d="M85.1501 433.06C85.1501 433.011 85.16 432.962 85.1792 432.916C85.1984 432.871 85.2266 432.83 85.262 432.795C85.2974 432.761 85.3394 432.734 85.3855 432.716C85.4315 432.698 85.4807 432.689 85.5301 432.69C85.5831 432.682 85.6374 432.684 85.6892 432.699C85.741 432.713 85.789 432.738 85.83 432.773C85.871 432.808 85.9039 432.851 85.9265 432.9C85.9491 432.949 85.9608 433.002 85.9608 433.055C85.9608 433.109 85.9491 433.162 85.9265 433.211C85.9039 433.26 85.871 433.303 85.83 433.338C85.789 433.372 85.741 433.398 85.6892 433.412C85.6374 433.426 85.5831 433.429 85.5301 433.42C85.4815 433.422 85.4332 433.413 85.3878 433.396C85.3424 433.379 85.3008 433.352 85.2655 433.319C85.2303 433.286 85.2019 433.246 85.1821 433.201C85.1623 433.157 85.1514 433.109 85.1501 433.06V433.06ZM85.2501 434.01H85.8101V437.09H85.2501V434.01Z" fill="#263238"/>
<path d="M86.4802 436.77L86.7202 436.32C87.0406 436.531 87.4164 436.643 87.8002 436.64C88.3202 436.64 88.5302 436.49 88.5302 436.23C88.5302 435.53 86.5302 436.13 86.5302 434.91C86.5302 434.35 87.0302 433.98 87.8202 433.98C88.2113 433.976 88.5969 434.073 88.9402 434.26L88.7002 434.7C88.433 434.536 88.1238 434.452 87.8102 434.46C87.3202 434.46 87.0902 434.64 87.0902 434.88C87.0902 435.61 89.0902 435.02 89.0902 436.21C89.0902 436.77 88.5802 437.13 87.7602 437.13C87.3073 437.14 86.8618 437.014 86.4802 436.77V436.77Z" fill="#263238"/>
<path d="M91.5201 436.88C91.3283 437.035 91.0862 437.113 90.8401 437.1C90.7041 437.121 90.5653 437.109 90.4347 437.066C90.3042 437.022 90.1855 436.949 90.0883 436.852C89.991 436.755 89.918 436.636 89.8749 436.506C89.8318 436.375 89.8199 436.236 89.8401 436.1V434.41H89.3101V433.95H89.8801V433.28H90.4401V433.95H91.3201V434.41H90.4401V436.08C90.4293 436.148 90.4339 436.216 90.4536 436.282C90.4733 436.347 90.5075 436.407 90.5538 436.457C90.6 436.507 90.657 436.546 90.7204 436.571C90.7839 436.596 90.8522 436.606 90.9201 436.6C91.0762 436.6 91.2275 436.547 91.3501 436.45L91.5201 436.88Z" fill="#263238"/>
<path d="M94.6402 435.23V437.09H94.1102V436.69C93.9913 436.839 93.8383 436.956 93.6642 437.033C93.49 437.11 93.3 437.143 93.1102 437.13C92.4202 437.13 91.9702 436.76 91.9702 436.22C91.9702 435.68 92.2902 435.32 93.2102 435.32H94.1002V435.21C94.1002 434.74 93.8202 434.46 93.2702 434.46C92.9073 434.453 92.5534 434.573 92.2702 434.8L92.0402 434.38C92.4081 434.104 92.8602 433.962 93.3202 433.98C93.4936 433.954 93.6708 433.967 93.8383 434.019C94.0058 434.071 94.1591 434.161 94.2865 434.282C94.4139 434.402 94.512 434.551 94.5733 434.715C94.6346 434.879 94.6575 435.056 94.6402 435.23V435.23ZM94.0802 436.15V435.72H93.2202C92.6602 435.72 92.5102 435.94 92.5102 436.2C92.5102 436.46 92.7602 436.7 93.1902 436.7C93.3776 436.714 93.5646 436.669 93.7245 436.57C93.8844 436.471 94.0089 436.324 94.0802 436.15V436.15Z" fill="#263238"/>
<path d="M98.5901 435.32V437.09H98.0401V435.38C98.0401 434.78 97.7301 434.48 97.2001 434.48C97.0658 434.468 96.9303 434.485 96.8034 434.531C96.6765 434.577 96.5612 434.651 96.4658 434.746C96.3703 434.841 96.2971 434.957 96.2512 435.084C96.2053 435.21 96.1879 435.346 96.2001 435.48V437.06H95.6401V433.98H96.1701V434.45C96.303 434.283 96.4741 434.151 96.6691 434.064C96.864 433.977 97.077 433.938 97.2901 433.95C97.4717 433.931 97.6553 433.954 97.8266 434.017C97.9979 434.08 98.1524 434.182 98.2781 434.315C98.4038 434.447 98.4973 434.607 98.5514 434.781C98.6055 434.955 98.6188 435.14 98.5901 435.32V435.32Z" fill="#263238"/>
<path d="M99.3601 435.55C99.3556 435.338 99.3952 435.127 99.4763 434.93C99.5574 434.734 99.6783 434.556 99.8315 434.408C99.9846 434.261 100.167 434.147 100.366 434.073C100.565 433.999 100.778 433.968 100.99 433.98C101.24 433.967 101.489 434.021 101.711 434.137C101.933 434.253 102.119 434.427 102.25 434.64L101.82 434.91C101.727 434.773 101.602 434.661 101.456 434.584C101.309 434.508 101.146 434.468 100.98 434.47C100.71 434.496 100.46 434.622 100.278 434.822C100.095 435.023 99.9944 435.284 99.9944 435.555C99.9944 435.826 100.095 436.088 100.278 436.288C100.46 436.489 100.71 436.614 100.98 436.64C101.146 436.642 101.309 436.603 101.456 436.526C101.602 436.449 101.727 436.337 101.82 436.2L102.25 436.46C102.119 436.675 101.934 436.85 101.712 436.968C101.49 437.086 101.241 437.142 100.99 437.13C100.777 437.141 100.565 437.108 100.365 437.034C100.166 436.959 99.984 436.844 99.831 436.695C99.6781 436.547 99.5573 436.369 99.4763 436.172C99.3953 435.975 99.3557 435.763 99.3601 435.55V435.55Z" fill="#263238"/>
<path d="M105.69 435.74H103.19C103.202 435.874 103.242 436.003 103.305 436.121C103.368 436.24 103.455 436.344 103.559 436.428C103.664 436.512 103.784 436.574 103.913 436.61C104.042 436.647 104.177 436.657 104.31 436.64C104.476 436.646 104.642 436.616 104.795 436.552C104.949 436.488 105.087 436.392 105.2 436.27L105.51 436.63C105.355 436.797 105.165 436.927 104.955 437.014C104.744 437.1 104.517 437.14 104.29 437.13C104.075 437.146 103.859 437.116 103.656 437.043C103.453 436.97 103.267 436.856 103.111 436.707C102.955 436.558 102.831 436.379 102.749 436.179C102.666 435.98 102.625 435.766 102.63 435.55C102.622 435.344 102.656 435.137 102.731 434.945C102.805 434.752 102.919 434.576 103.064 434.429C103.21 434.282 103.384 434.166 103.576 434.089C103.768 434.012 103.973 433.975 104.18 433.98C104.387 433.974 104.594 434.012 104.786 434.09C104.978 434.169 105.151 434.287 105.294 434.437C105.437 434.587 105.548 434.765 105.618 434.96C105.687 435.156 105.716 435.364 105.7 435.57C105.702 435.627 105.698 435.684 105.69 435.74V435.74ZM103.19 435.34H105.19C105.19 435.075 105.085 434.821 104.897 434.633C104.71 434.446 104.455 434.34 104.19 434.34C103.925 434.34 103.671 434.446 103.483 434.633C103.295 434.821 103.19 435.075 103.19 435.34Z" fill="#263238"/>
<path d="M69.9802 441.66V451.36H67.7302V443.46H65.7902V441.66H69.9802Z" fill="#263238"/>
<path d="M74.2902 450.12C74.2688 450.602 74.1425 451.073 73.9201 451.5L73.1202 453.5H71.7501L72.3601 451.3C72.1284 451.205 71.9318 451.041 71.7975 450.83C71.6631 450.618 71.5977 450.37 71.6101 450.12C71.6101 449.765 71.7513 449.424 72.0026 449.173C72.2539 448.922 72.5948 448.78 72.9502 448.78C73.3055 448.78 73.6464 448.922 73.8977 449.173C74.149 449.424 74.2902 449.765 74.2902 450.12Z" fill="#263238"/>
<path d="M78.8801 441.66V451.36H76.5801V443.46H74.6401V441.66H78.8801Z" fill="#263238"/>
<path d="M80.5201 446.51C80.5201 443.31 82.2901 441.51 84.6801 441.51C87.0701 441.51 88.8401 443.33 88.8401 446.51C88.8401 449.69 87.0801 451.51 84.6801 451.51C82.2801 451.51 80.5201 449.71 80.5201 446.51ZM86.5801 446.51C86.5801 444.31 85.8001 443.39 84.6801 443.39C83.5601 443.39 82.7901 444.31 82.7901 446.51C82.7901 448.71 83.5701 449.63 84.6801 449.63C85.7901 449.63 86.5801 448.72 86.5801 446.51Z" fill="#263238"/>
<path d="M89.9302 446.51C89.9302 443.31 91.7102 441.51 94.1002 441.51C96.4902 441.51 98.2602 443.33 98.2602 446.51C98.2602 449.69 96.5002 451.51 94.1002 451.51C91.7002 451.51 89.9302 449.71 89.9302 446.51ZM96.0002 446.51C96.0002 444.31 95.2202 443.39 94.1002 443.39C92.9802 443.39 92.2102 444.31 92.2102 446.51C92.2102 448.71 92.9902 449.63 94.1002 449.63C95.2102 449.63 96.0002 448.72 96.0002 446.51Z" fill="#263238"/>
<path d="M116.34 447.09V451.36H114.18V447.43C114.18 446.22 113.64 445.66 112.76 445.66C111.88 445.66 111.11 446.29 111.11 447.66V451.4H108.95V447.47C108.95 446.26 108.44 445.7 107.54 445.7C106.64 445.7 105.9 446.33 105.9 447.7V451.44H103.74V443.88H105.8V444.74C106.094 444.411 106.457 444.151 106.863 443.978C107.27 443.805 107.709 443.724 108.15 443.74C108.629 443.715 109.106 443.814 109.536 444.028C109.965 444.242 110.332 444.563 110.6 444.96C110.926 444.566 111.338 444.251 111.804 444.04C112.27 443.829 112.779 443.726 113.29 443.74C115.07 443.79 116.34 444.82 116.34 447.09Z" fill="#263238"/>
<path d="M59.8246 442.792C60.8825 438.292 58.0922 433.787 53.5923 432.729C49.0923 431.671 44.5868 434.461 43.5288 438.961C42.4709 443.461 45.2612 447.966 49.7611 449.024C54.2611 450.082 58.7666 447.292 59.8246 442.792Z" fill="#53B175"/>
<path d="M48.3001 442.42C49.012 442.318 49.7311 442.274 50.4501 442.29C51.8201 442.29 53.7801 442.22 56.1201 442.2L55.9501 442.57C55.2801 441.81 54.5701 440.97 53.8101 440.1L53.6801 439.95L53.8101 439.78L55.9201 437.15L56.1201 437.57H55.1201H48.2501L48.4901 437.34C48.4901 439.88 48.4301 442.02 48.3901 443.52C48.4068 444.313 48.36 445.105 48.2501 445.89C48.1467 445.105 48.0999 444.313 48.1101 443.52C48.1101 442.02 48.0401 439.88 48.0201 437.34V437.11H48.2501H55.1201H56.6101L56.2701 437.53L54.1401 440.16V439.84L56.2401 442.34L56.5601 442.71H56.0701C53.7301 442.71 51.7701 442.65 50.4001 442.62C49.6957 442.614 48.9931 442.547 48.3001 442.42V442.42Z" fill="#FAFAFA"/>
<path d="M187.1 426.61H161.8C160.514 426.61 159.28 427.121 158.371 428.031C157.461 428.94 156.95 430.174 156.95 431.46V451.38C156.953 452.665 157.465 453.896 158.374 454.803C159.283 455.711 160.516 456.22 161.8 456.22H162.44V460.97L167.95 456.22H187.1C188.385 456.22 189.617 455.711 190.526 454.803C191.435 453.896 191.947 452.665 191.95 451.38V431.46C191.95 430.174 191.439 428.94 190.53 428.031C189.62 427.121 188.386 426.61 187.1 426.61V426.61Z" fill="#53B175"/>
<path d="M164.21 435.75V445.97C164.21 446.076 164.252 446.178 164.327 446.253C164.402 446.328 164.504 446.37 164.61 446.37H186.03C186.083 446.369 186.134 446.357 186.182 446.336C186.231 446.315 186.274 446.284 186.31 446.246C186.346 446.208 186.375 446.163 186.394 446.114C186.412 446.065 186.421 446.013 186.42 445.96L186.37 442.22C186.372 442.138 186.347 442.058 186.3 441.99L183.22 437.88C183.185 437.831 183.139 437.79 183.085 437.763C183.031 437.735 182.971 437.72 182.91 437.72H179.37C179.266 437.72 179.166 437.68 179.091 437.607C179.016 437.534 178.973 437.435 178.97 437.33V435.78C178.971 435.728 178.962 435.676 178.943 435.628C178.924 435.58 178.896 435.535 178.86 435.498C178.823 435.461 178.78 435.431 178.732 435.411C178.684 435.391 178.632 435.38 178.58 435.38H164.58C164.484 435.387 164.394 435.428 164.326 435.496C164.258 435.564 164.217 435.654 164.21 435.75V435.75Z" fill="#FAFAFA"/>
<path d="M179.97 438.59V441.88C179.97 441.941 179.994 442 180.038 442.043C180.081 442.086 180.139 442.11 180.2 442.11L184.93 442.03C184.971 442.029 185.011 442.016 185.045 441.994C185.08 441.971 185.108 441.94 185.126 441.903C185.145 441.867 185.153 441.826 185.15 441.785C185.147 441.744 185.133 441.704 185.11 441.67L182.88 438.39C182.86 438.358 182.832 438.332 182.799 438.314C182.765 438.297 182.728 438.288 182.69 438.29L180.17 438.36C180.114 438.365 180.061 438.392 180.024 438.435C179.987 438.478 179.967 438.534 179.97 438.59V438.59Z" fill="#53B175"/>
<path d="M186.85 446.68H163.78V447.39H186.85V446.68Z" fill="#FAFAFA"/>
<path d="M171.41 446.95C171.412 447.404 171.279 447.848 171.028 448.226C170.777 448.604 170.42 448.899 170.001 449.074C169.582 449.249 169.121 449.295 168.676 449.207C168.231 449.119 167.822 448.9 167.501 448.58C167.18 448.259 166.962 447.85 166.874 447.405C166.786 446.959 166.832 446.498 167.006 446.079C167.181 445.66 167.476 445.303 167.854 445.052C168.232 444.801 168.676 444.668 169.13 444.67C169.735 444.67 170.315 444.911 170.742 445.338C171.17 445.766 171.41 446.346 171.41 446.95Z" fill="#53B175"/>
<path d="M170.47 446.95C170.472 447.218 170.394 447.481 170.247 447.704C170.099 447.928 169.889 448.102 169.641 448.206C169.394 448.309 169.122 448.337 168.859 448.285C168.596 448.233 168.355 448.104 168.166 447.915C167.976 447.725 167.847 447.484 167.796 447.221C167.744 446.958 167.771 446.686 167.875 446.439C167.978 446.192 168.153 445.981 168.376 445.834C168.6 445.686 168.862 445.608 169.13 445.61C169.486 445.61 169.826 445.751 170.078 446.003C170.329 446.254 170.47 446.595 170.47 446.95Z" fill="#FAFAFA"/>
<path d="M178.96 446.37C178.9 446.37 178.85 443.9 178.85 440.86C178.85 437.82 178.85 435.35 178.96 435.35C179.07 435.35 179.06 437.82 179.06 440.86C179.06 443.9 179.01 446.37 178.96 446.37Z" fill="#53B175"/>
<path d="M183.88 446.95C183.88 447.401 183.746 447.842 183.496 448.217C183.245 448.592 182.889 448.884 182.473 449.057C182.056 449.229 181.598 449.274 181.155 449.187C180.713 449.099 180.307 448.881 179.988 448.563C179.669 448.244 179.452 447.837 179.364 447.395C179.276 446.953 179.321 446.494 179.494 446.078C179.666 445.661 179.959 445.305 180.333 445.055C180.708 444.804 181.149 444.67 181.6 444.67C182.205 444.67 182.785 444.911 183.212 445.338C183.64 445.766 183.88 446.346 183.88 446.95Z" fill="#53B175"/>
<path d="M182.88 446.95C182.882 447.218 182.805 447.48 182.658 447.703C182.51 447.926 182.3 448.101 182.054 448.205C181.807 448.308 181.535 448.337 181.273 448.286C181.01 448.235 180.769 448.107 180.579 447.918C180.389 447.73 180.26 447.49 180.207 447.227C180.154 446.965 180.18 446.693 180.282 446.446C180.384 446.199 180.557 445.987 180.779 445.839C181.001 445.69 181.263 445.61 181.53 445.61C181.886 445.61 182.228 445.751 182.481 446.002C182.734 446.253 182.878 446.594 182.88 446.95V446.95Z" fill="#FAFAFA"/>
<path d="M181.57 442.74C181.57 442.8 181.24 442.84 180.84 442.84C180.44 442.84 180.11 442.84 180.11 442.74C180.11 442.64 180.44 442.63 180.84 442.63C181.24 442.63 181.57 442.68 181.57 442.74Z" fill="#53B175"/>
<path d="M367.938 281.859C367.938 281.859 384.068 284.579 385.368 284.929C386.668 285.279 391.778 287.699 392.038 289.259C392.173 291.307 392.173 293.362 392.038 295.409C392.038 295.409 391.108 296.159 390.538 294.659C390.155 293.202 389.99 291.695 390.048 290.189L387.188 289.089L388.748 291.859L389.008 298.349C389.008 298.349 387.008 298.169 386.618 296.619C386.373 295.54 386.245 294.436 386.238 293.329L384.158 291.569L385.718 293.679L386.238 298.349C386.238 298.349 384.718 298.849 384.238 297.809C383.887 296.461 383.712 295.073 383.718 293.679L377.838 291.619L373.948 293.789L366.678 289.729L367.938 281.859Z" fill="#FFBE9D"/>
<path d="M311.458 241.989C311.538 242.309 330.898 268.989 330.898 268.989L369.798 281.089L368.028 295.699L320.358 286.099L303.438 266.679L311.458 241.989Z" fill="#53B175"/>
<g opacity="0.2">
<path opacity="0.2" d="M311.458 241.989C311.538 242.309 330.898 268.989 330.898 268.989L369.798 281.089L368.028 295.699L320.358 286.099L303.438 266.679L311.458 241.989Z" fill="black"/>
</g>
<path d="M243.698 278.679H164.218C162.533 278.679 161.168 280.045 161.168 281.729V291.119C161.168 292.804 162.533 294.169 164.218 294.169H243.698C245.382 294.169 246.748 292.804 246.748 291.119V281.729C246.748 280.045 245.382 278.679 243.698 278.679Z" fill="#F5F5F5"/>
<path d="M243.708 294.169C243.708 294.169 243.878 294.169 244.208 294.099C244.844 293.982 245.425 293.663 245.864 293.189C246.304 292.715 246.579 292.112 246.648 291.469C246.648 290.529 246.648 289.409 246.648 288.169C246.648 286.929 246.648 285.539 246.648 284.029C246.648 283.269 246.648 282.479 246.648 281.659C246.635 281.253 246.539 280.855 246.367 280.487C246.195 280.119 245.951 279.79 245.648 279.519C245.319 279.242 244.934 279.04 244.518 278.929C244.075 278.833 243.62 278.802 243.168 278.839H240.248H233.898L164.288 278.919C163.899 278.919 163.513 278.999 163.157 279.156C162.801 279.313 162.481 279.542 162.218 279.829C161.958 280.12 161.76 280.461 161.637 280.83C161.513 281.2 161.466 281.591 161.498 281.979C161.498 283.659 161.498 285.329 161.498 286.979V290.729C161.479 291.112 161.512 291.496 161.598 291.869C161.747 292.41 162.054 292.894 162.48 293.259C162.906 293.624 163.431 293.854 163.988 293.919C164.338 293.919 164.768 293.919 165.168 293.919H183.648L214.938 293.979L236.038 294.059L241.778 294.109H243.268H243.778H243.268H241.778L236.038 294.159L214.938 294.239L183.648 294.299H165.098C164.688 294.299 164.308 294.299 163.858 294.299C163.423 294.247 163.002 294.111 162.618 293.899C162.235 293.687 161.899 293.401 161.628 293.057C161.356 292.714 161.156 292.321 161.038 291.899C160.93 291.482 160.89 291.05 160.918 290.619V286.909C160.918 285.259 160.918 283.589 160.918 281.909C160.891 281.456 160.954 281.002 161.104 280.573C161.253 280.144 161.485 279.748 161.788 279.409C162.097 279.067 162.475 278.794 162.898 278.608C163.32 278.422 163.777 278.327 164.238 278.329L233.848 278.409H243.118C243.598 278.39 244.078 278.43 244.548 278.529C245.006 278.653 245.429 278.879 245.788 279.189C246.126 279.482 246.399 279.843 246.59 280.247C246.782 280.652 246.886 281.092 246.898 281.539C246.898 282.359 246.898 283.159 246.898 283.919C246.898 285.429 246.898 286.809 246.898 288.059C246.898 289.309 246.898 290.399 246.848 291.379C246.737 292.209 246.302 292.96 245.638 293.469C245.233 293.773 244.759 293.969 244.258 294.039C244.083 294.112 243.897 294.156 243.708 294.169Z" fill="#263238"/>
<path d="M459.512 492.103C482.069 491.02 499.476 471.855 498.393 449.299C497.309 426.742 478.145 409.334 455.588 410.417C433.031 411.501 415.623 430.665 416.707 453.222C417.79 475.779 436.955 493.187 459.512 492.103Z" fill="#263238"/>
<path d="M416.678 450.569C416.678 450.569 416.678 450.639 416.678 450.679C416.587 461.481 420.774 471.88 428.325 479.604C435.875 487.329 446.175 491.753 456.976 491.909C467.777 492.064 478.201 487.94 485.971 480.436C493.741 472.933 498.227 462.659 498.448 451.859C498.448 451.859 498.448 451.789 498.448 451.749L416.678 450.569Z" fill="#263238"/>
<path d="M428.848 450.849C428.765 456.527 430.368 462.102 433.454 466.869C436.54 471.636 440.97 475.38 446.185 477.629C451.399 479.878 457.163 480.53 462.748 479.503C468.332 478.476 473.487 475.816 477.56 471.859C481.633 467.902 484.441 462.826 485.629 457.273C486.817 451.721 486.332 445.94 484.235 440.663C482.138 435.386 478.523 430.85 473.847 427.627C469.172 424.405 463.646 422.641 457.968 422.559C450.355 422.45 443.01 425.369 437.549 430.674C432.088 435.979 428.958 443.236 428.848 450.849V450.849Z" fill="#FAFAFA"/>
<path d="M457.968 422.559C450.355 422.45 443.01 425.369 437.549 430.674C432.088 435.979 428.958 443.236 428.848 450.849L486.258 451.679C486.367 444.066 483.449 436.722 478.143 431.261C472.838 425.8 465.581 422.67 457.968 422.559Z" fill="#E0E0E0"/>
<path d="M440.068 451.009C440.017 454.468 440.993 457.865 442.872 460.769C444.752 463.674 447.45 465.956 450.626 467.326C453.803 468.697 457.314 469.095 460.717 468.469C464.119 467.844 467.26 466.224 469.742 463.814C472.223 461.404 473.934 458.311 474.658 454.929C475.383 451.546 475.087 448.024 473.81 444.809C472.532 441.594 470.33 438.83 467.482 436.867C464.634 434.904 461.267 433.829 457.808 433.779C453.171 433.712 448.697 435.49 445.37 438.721C442.044 441.952 440.136 446.372 440.068 451.009V451.009Z" fill="#263238"/>
<path d="M438.148 391.309C438.148 391.309 480.008 378.649 497.318 424.129L409.718 451.269L438.148 391.309Z" fill="#53B175"/>
<path d="M207.232 492.107C229.789 491.024 247.197 471.859 246.113 449.302C245.03 426.746 225.865 409.338 203.309 410.421C180.752 411.505 163.344 430.669 164.427 453.226C165.511 475.783 184.675 493.191 207.232 492.107Z" fill="#263238"/>
<path d="M164.388 450.569C164.388 450.569 164.388 450.639 164.388 450.679C164.297 461.481 168.484 471.88 176.035 479.604C183.585 487.329 193.886 491.753 204.686 491.909C215.487 492.064 225.911 487.94 233.681 480.436C241.451 472.933 245.937 462.659 246.158 451.859V451.729L164.388 450.569Z" fill="#263238"/>
<path d="M176.598 450.849C176.515 456.527 178.118 462.102 181.204 466.869C184.29 471.636 188.721 475.38 193.935 477.629C199.149 479.878 204.913 480.53 210.498 479.503C216.083 478.476 221.237 475.816 225.31 471.859C229.383 467.902 232.191 462.826 233.379 457.273C234.568 451.721 234.082 445.94 231.985 440.663C229.888 435.386 226.273 430.85 221.597 427.627C216.922 424.405 211.396 422.641 205.718 422.559C198.105 422.45 190.76 425.369 185.299 430.674C179.838 435.979 176.708 443.236 176.598 450.849V450.849Z" fill="#FAFAFA"/>
<path d="M205.678 422.559C198.072 422.46 190.737 425.384 185.285 430.688C179.833 435.992 176.708 443.243 176.598 450.849L234.008 451.679C234.062 447.906 233.372 444.16 231.977 440.654C230.582 437.148 228.51 433.951 225.879 431.247C223.248 428.542 220.109 426.383 216.643 424.892C213.177 423.402 209.451 422.609 205.678 422.559Z" fill="#E0E0E0"/>
<path d="M187.778 451.009C187.727 454.468 188.703 457.865 190.582 460.769C192.462 463.674 195.16 465.956 198.336 467.326C201.513 468.697 205.024 469.095 208.427 468.469C211.829 467.844 214.97 466.224 217.452 463.814C219.933 461.404 221.644 458.311 222.368 454.929C223.093 451.546 222.797 448.024 221.52 444.809C220.242 441.594 218.04 438.83 215.192 436.867C212.344 434.904 208.977 433.829 205.518 433.779C200.881 433.712 196.407 435.49 193.08 438.721C189.754 441.952 187.846 446.372 187.778 451.009V451.009Z" fill="#263238"/>
<path d="M263.428 434.849C263.198 434.969 241.908 431.559 241.908 431.559C240.757 433.062 239.291 434.295 237.614 435.172C235.937 436.05 234.089 436.551 232.198 436.639C222.998 437.079 214.008 437.489 206.198 437.839C202.708 437.995 199.423 439.528 197.061 442.101C194.7 444.675 193.454 448.079 193.598 451.569V451.569C193.738 454.882 195.119 458.02 197.466 460.362C199.813 462.703 202.955 464.077 206.268 464.209L251.598 465.999C259.048 466.289 268.948 461.769 273.598 455.939L263.428 434.849Z" fill="#455A64"/>
<path d="M152.178 416.729C152.178 416.729 150.238 376.879 187.688 368.579V363.469H318.868V375.729C318.868 375.729 299.618 398.919 305.868 418.169C312.118 437.419 314.118 439.389 314.118 439.389H388.778C394.669 431.109 397.953 421.258 398.208 411.099C398.608 394.199 391.588 365.309 386.338 346.839C381.598 329.989 378.598 315.949 378.598 315.949L400.998 308.479C400.998 308.479 442.448 362.729 444.138 365.729C445.828 368.729 451.588 375.889 450.238 391.469C448.888 407.049 411.598 455.109 401.818 460.529C392.038 465.949 383.198 466.289 374.388 467.639C366.748 468.819 310.228 468.039 295.438 467.809C290.298 467.777 285.26 466.379 280.838 463.759C276.418 461.079 273.098 456.639 269.428 449.359L261.598 434.119L152.178 416.729Z" fill="#53B175"/>
<path d="M162.218 413.989L145.698 439.869C145.207 440.587 144.964 441.444 145.004 442.312C145.045 443.18 145.366 444.011 145.921 444.68C146.476 445.349 147.233 445.819 148.079 446.019C148.924 446.219 149.812 446.139 150.608 445.789C152.664 444.87 154.542 443.598 156.158 442.029C163.708 434.839 177.158 415.899 177.158 415.899L162.218 413.989Z" fill="#455A64"/>
<path d="M280.708 418.649C280.708 418.649 280.708 418.519 280.808 418.269L281.138 417.179C281.535 415.78 281.826 414.353 282.008 412.909C282.561 407.568 281.678 402.175 279.448 397.289C277.948 393.918 275.889 390.824 273.358 388.139C270.451 385.073 267.075 382.488 263.358 380.479C259.238 378.255 254.829 376.612 250.258 375.599C245.33 374.536 240.299 374.016 235.258 374.049C230.239 374.086 225.228 374.457 220.258 375.159C215.418 375.809 210.778 376.609 206.398 377.609C198.622 379.261 191.127 382.033 184.148 385.839C179.461 388.44 175.179 391.711 171.438 395.549C170.118 396.909 169.168 398.039 168.538 398.809L167.828 399.699C167.752 399.805 167.665 399.902 167.568 399.989C168.671 398.357 169.916 396.824 171.288 395.409C174.997 391.498 179.271 388.165 183.968 385.519C190.959 381.644 198.483 378.821 206.298 377.139C210.678 376.139 215.298 375.309 220.188 374.649C225.197 373.94 230.249 373.566 235.308 373.529C240.377 373.496 245.434 374.022 250.388 375.099C255.004 376.147 259.453 377.83 263.608 380.099C267.377 382.136 270.797 384.763 273.738 387.879C276.288 390.61 278.354 393.755 279.848 397.179C282.069 402.13 282.905 407.591 282.268 412.979C282.058 414.429 281.723 415.857 281.268 417.249C281.108 417.709 280.988 418.059 280.888 418.329C280.837 418.441 280.777 418.548 280.708 418.649V418.649Z" fill="#263238"/>
<path d="M273.158 409.729C273.098 409.729 273.368 409.099 273.648 407.959C274.023 406.318 274.074 404.62 273.798 402.959C273.409 400.518 272.582 398.167 271.358 396.019C270.665 394.734 269.855 393.516 268.938 392.379C267.978 391.143 266.888 390.014 265.688 389.009C263.348 387.083 260.715 385.543 257.888 384.449C255.575 383.542 253.176 382.872 250.728 382.449C249.073 382.17 247.403 381.98 245.728 381.879C245.112 381.871 244.498 381.825 243.888 381.739C244.047 381.715 244.209 381.715 244.368 381.739C244.678 381.739 245.138 381.739 245.738 381.739C247.412 381.764 249.082 381.901 250.738 382.149C253.225 382.506 255.666 383.133 258.018 384.019C260.917 385.111 263.619 386.668 266.018 388.629C267.242 389.66 268.355 390.817 269.338 392.079C270.257 393.248 271.07 394.496 271.768 395.809C273.006 398.01 273.813 400.426 274.148 402.929C274.396 404.619 274.291 406.342 273.838 407.989C273.719 408.434 273.559 408.866 273.358 409.279C273.313 409.438 273.245 409.589 273.158 409.729Z" fill="#F5F5F5"/>
<g opacity="0.4">
<path opacity="0.4" d="M247.468 374.789C254.528 376.079 261.25 378.802 267.218 382.789C273.218 386.773 277.839 392.516 280.448 399.229C283.068 405.969 282.678 414.899 279.918 420.479L289.188 421.249C292.308 410.839 288.918 398.069 281.418 389.919C277.126 385.167 271.89 381.363 266.044 378.751C260.198 376.139 253.871 374.776 247.468 374.749" fill="black"/>
</g>
<path d="M244.508 293.389H163.418C158.679 293.389 154.838 297.231 154.838 301.969V354.919C154.838 359.658 158.679 363.499 163.418 363.499H244.508C249.246 363.499 253.088 359.658 253.088 354.919V301.969C253.088 297.231 249.246 293.389 244.508 293.389Z" fill="#455A64"/>
<path d="M253.088 309.029C253.088 309.179 230.998 309.289 203.758 309.289C176.518 309.289 154.418 309.179 154.418 309.029C154.418 308.879 176.498 308.769 203.758 308.769C231.018 308.769 253.088 308.889 253.088 309.029Z" fill="#263238"/>
<path d="M318.808 368.139C318.808 368.279 289.318 368.399 252.958 368.399C216.598 368.399 187.108 368.279 187.108 368.139C187.108 367.999 216.588 367.879 252.958 367.879C289.328 367.879 318.808 367.999 318.808 368.139Z" fill="#263238"/>
<path d="M318.868 363.499C320.204 361.806 321.03 359.766 321.248 357.619C321.448 354.329 319.948 350.209 316.398 350.209H271.098C267.573 350.209 264.193 351.61 261.7 354.102C259.208 356.594 257.808 359.975 257.808 363.499H318.868Z" fill="#455A64"/>
<path d="M378.598 315.949L370.718 299.519C369.666 297.264 369.493 294.697 370.233 292.321C370.972 289.944 372.572 287.929 374.718 286.669L398.278 272.619C399.507 271.88 400.914 271.49 402.348 271.489H407.438L409.438 304.699L401.598 307.729L406.598 315.809L378.598 315.949Z" fill="#53B175"/>
<path d="M407.508 272.729C407.508 272.729 415.568 274.579 416.578 286.999C417.588 299.419 409.468 303.299 409.468 303.299L407.508 272.729Z" fill="#EBEBEB"/>
<path d="M381.348 293.079C381.348 293.079 365.058 300.799 363.068 302.079C361.688 302.959 360.508 304.499 361.588 307.209C363.428 311.819 371.048 307.479 371.048 307.479L386.218 299.899C386.218 299.899 392.048 297.149 389.888 293.699C387.478 289.839 381.348 293.079 381.348 293.079Z" fill="#263238"/>
<path d="M358.288 290.269C358.288 290.269 373.598 292.889 374.898 293.269C376.198 293.649 381.298 296.039 381.558 297.599C381.693 299.647 381.693 301.702 381.558 303.749C381.558 303.749 380.638 304.499 380.058 302.999C379.681 301.537 379.516 300.028 379.568 298.519L376.708 297.419L378.268 300.189L378.528 306.689C378.528 306.689 376.528 306.509 376.148 304.949C375.902 303.873 375.775 302.773 375.768 301.669L373.678 299.899L375.238 302.009L375.768 306.689C375.768 306.689 374.248 307.179 373.768 306.139C373.416 304.791 373.241 303.403 373.248 302.009L367.368 299.959L363.478 302.129L357.358 298.729L358.288 290.269Z" fill="#FFBE9D"/>
<path d="M382.128 268.949C382.128 275.149 379.278 280.169 375.768 280.169C372.258 280.169 369.408 275.169 369.408 268.949C369.408 262.729 372.248 257.729 375.768 257.729C379.288 257.729 382.128 262.729 382.128 268.949Z" fill="#263238"/>
<path d="M376.808 276.659L380.308 288.779C380.947 288.457 381.456 287.927 381.753 287.276C382.049 286.625 382.115 285.892 381.938 285.199C381.058 281.049 380.558 278.099 379.598 274.459C379.478 274.099 376.808 276.659 376.808 276.659" fill="#263238"/>
<g opacity="0.4">
<path opacity="0.4" d="M307.598 423.299C307.258 422.299 306.898 421.299 306.598 420.229C306.298 419.159 305.918 418.229 305.658 417.229C305.255 415.729 304.961 414.202 304.778 412.659C298.878 436.659 307.888 453.589 323.348 454.779C345.948 456.519 373.498 457.779 384.638 454.859C404.948 449.529 412.398 432.589 414.178 429.799C415.958 427.009 432.108 397.479 422.178 369.049C412.248 340.619 395.028 310.429 395.028 310.429L378.598 315.949C378.598 315.949 381.598 329.949 386.368 346.789C391.618 365.259 398.638 394.149 398.238 411.049C397.983 421.208 394.699 431.059 388.808 439.339H314.158C314.158 439.339 312.558 437.739 307.628 423.339" fill="black"/>
</g>
<path d="M149.198 410.509L149.728 404.809L286.008 420.509C287.829 420.724 289.588 421.308 291.175 422.226C292.762 423.144 294.145 424.377 295.239 425.85C296.333 427.322 297.114 429.002 297.535 430.787C297.956 432.571 298.008 434.424 297.688 436.229L297.078 439.679L156.078 419.189C154.033 418.91 152.175 417.85 150.893 416.232C149.611 414.615 149.003 412.564 149.198 410.509V410.509Z" fill="#53B175"/>
<g opacity="0.6">
<path opacity="0.6" d="M149.198 410.509L149.728 404.809L286.008 420.509C287.829 420.724 289.588 421.308 291.175 422.226C292.762 423.144 294.145 424.377 295.239 425.85C296.333 427.322 297.114 429.002 297.535 430.787C297.956 432.571 298.008 434.424 297.688 436.229L297.078 439.679L156.078 419.189C154.033 418.91 152.175 417.85 150.893 416.232C149.611 414.615 149.003 412.564 149.198 410.509V410.509Z" fill="black"/>
</g>
<g opacity="0.3">
<path opacity="0.3" d="M414.178 448.629C414.178 448.629 444.178 415.629 450.368 389.689C453.478 389.671 456.585 389.902 459.658 390.379C459.658 390.379 441.918 438.609 414.178 448.629Z" fill="black"/>
</g>
<path d="M449.928 378.069C450.006 378.341 450.059 378.618 450.088 378.899C450.168 379.449 450.328 380.259 450.428 381.309C450.72 384.307 450.643 387.33 450.198 390.309C449.493 394.709 448.145 398.982 446.198 402.989C443.821 407.869 441.171 412.61 438.258 417.189C433.031 425.547 427.159 433.485 420.698 440.929C418.258 443.819 416.238 446.119 414.838 447.699L413.218 449.509C413.034 449.724 412.837 449.928 412.628 450.119C412.776 449.88 412.947 449.656 413.138 449.449L414.688 447.569L420.418 440.699C426.778 433.198 432.592 425.251 437.818 416.919C440.734 412.355 443.404 407.638 445.818 402.789C447.74 398.821 449.087 394.598 449.818 390.249C450.277 387.313 450.408 384.335 450.208 381.369C450.138 380.319 450.008 379.509 449.968 378.949C449.925 378.658 449.912 378.363 449.928 378.069V378.069Z" fill="#263238"/>
<path d="M398.068 448.389C396.35 447.075 394.741 445.623 393.258 444.049C391.656 442.598 390.172 441.023 388.818 439.339C392.14 442.102 395.234 445.128 398.068 448.389V448.389Z" fill="#263238"/>
<path d="M309.028 447.379C309.511 445.838 310.259 444.393 311.238 443.109C312.072 441.728 313.137 440.5 314.388 439.479C314.498 439.589 313.128 441.229 311.668 443.399C310.208 445.569 309.168 447.439 309.028 447.379Z" fill="#263238"/>
<path d="M251.388 466.429C253.029 464.933 254.411 463.176 255.478 461.229C256.598 459.103 257.278 456.774 257.478 454.379C257.781 451.46 257.271 448.514 256.004 445.867C254.737 443.219 252.762 440.974 250.298 439.379C248.312 438.03 246.074 437.095 243.718 436.629C241.535 436.235 239.301 436.204 237.108 436.539C237.249 436.479 237.397 436.435 237.548 436.409C237.982 436.296 238.423 436.209 238.868 436.149C240.504 435.93 242.164 435.971 243.788 436.269C246.21 436.697 248.518 437.619 250.568 438.979C253.13 440.607 255.182 442.923 256.489 445.662C257.796 448.402 258.305 451.454 257.958 454.469C257.728 456.927 256.993 459.31 255.798 461.469C255.012 462.921 253.999 464.237 252.798 465.369C252.484 465.681 252.15 465.971 251.798 466.239C251.669 466.319 251.532 466.383 251.388 466.429V466.429Z" fill="#263238"/>
<path d="M201.598 455.979C201.255 454.403 201.09 452.793 201.108 451.179C200.935 449.571 200.935 447.948 201.108 446.339C201.607 449.527 201.761 452.759 201.568 455.979H201.598Z" fill="#263238"/>
<path d="M205.238 455.989C204.489 452.822 204.077 449.584 204.008 446.329C204.463 447.895 204.755 449.503 204.878 451.129C205.168 452.732 205.288 454.361 205.238 455.989V455.989Z" fill="#263238"/>
<path d="M261.448 363.499C261.448 363.639 244.878 363.759 224.448 363.759C204.018 363.759 187.448 363.639 187.448 363.499C187.448 363.359 204.018 363.239 224.448 363.239C244.878 363.239 261.448 363.349 261.448 363.499Z" fill="#263238"/>
<path d="M207.788 363.449C207.638 363.449 207.528 344.449 207.528 321.069C207.528 297.689 207.598 278.729 207.788 278.729C207.978 278.729 208.048 297.729 208.048 321.119C208.048 344.509 207.928 363.449 207.788 363.449Z" fill="#263238"/>
<path d="M197.598 363.379C197.458 363.379 198.168 344.379 199.188 321.019C200.208 297.659 201.188 278.669 201.288 278.679C201.388 278.689 200.728 297.679 199.708 321.039C198.688 344.399 197.788 363.389 197.598 363.379Z" fill="#263238"/>
<path d="M174.688 479.029C174.527 478.894 174.38 478.743 174.248 478.579C173.988 478.279 173.558 477.849 173.088 477.239C171.706 475.541 170.471 473.728 169.398 471.819C165.778 465.5 163.888 458.339 163.918 451.056C163.948 443.774 165.896 436.628 169.568 430.339C170.652 428.438 171.9 426.634 173.298 424.949C173.778 424.339 174.208 423.949 174.478 423.609C174.748 423.269 174.908 423.159 174.918 423.179C174.819 423.36 174.698 423.528 174.558 423.679C174.318 424.009 173.908 424.449 173.458 425.079C168.328 431.614 165.238 439.515 164.573 447.796C163.907 456.077 165.697 464.37 169.718 471.639C170.753 473.55 171.933 475.379 173.248 477.109C173.688 477.739 174.088 478.189 174.328 478.519C174.568 478.849 174.708 479.009 174.688 479.029Z" fill="#455A64"/>
<path d="M317.948 402.839L317.638 403.419L311.598 414.729L303.158 422.849L320.028 445.309L334.078 442.979C334.078 442.979 332.508 439.769 325.448 439.149L322.778 425.729L332.688 410.369" fill="#455A64"/>
<path d="M303.178 422.879L320.048 445.339L334.098 443.009L332.168 441.159L320.638 442.419L304.978 421.149L303.178 422.879Z" fill="#E0E0E0"/>
<path d="M324.348 433.009C324.268 433.169 323.348 432.839 322.348 433.059C321.348 433.279 320.538 433.849 320.408 433.729C320.278 433.609 320.908 432.669 322.228 432.439C323.548 432.209 324.458 432.879 324.348 433.009Z" fill="#263238"/>
<path d="M323.598 429.729C323.478 429.849 322.708 429.129 321.598 429.089C320.488 429.049 319.598 429.719 319.508 429.589C319.418 429.459 319.578 429.279 319.938 428.989C320.424 428.634 321.016 428.451 321.618 428.469C322.221 428.485 322.8 428.708 323.258 429.099C323.528 429.379 323.598 429.649 323.598 429.729Z" fill="#263238"/>
<path d="M322.948 425.379C322.808 425.489 322.188 424.759 321.158 424.579C320.128 424.399 319.298 424.869 319.158 424.719C319.018 424.569 319.248 424.429 319.618 424.219C320.106 423.961 320.667 423.873 321.211 423.971C321.755 424.069 322.25 424.347 322.618 424.759C322.958 425.079 323.018 425.339 322.948 425.379Z" fill="#263238"/>
<path d="M326.148 421.429C325.998 421.509 325.468 420.779 324.498 420.359C323.528 419.939 322.648 419.999 322.608 419.829C322.568 419.659 323.608 419.249 324.758 419.829C325.908 420.409 326.318 421.379 326.148 421.429Z" fill="#263238"/>
<path d="M327.508 418.239C327.438 418.289 326.888 417.809 326.038 416.969L324.598 415.479C324.272 415.188 323.989 414.851 323.758 414.479C323.691 414.345 323.651 414.2 323.64 414.05C323.63 413.901 323.65 413.751 323.698 413.609C323.755 413.448 323.858 413.306 323.995 413.203C324.132 413.1 324.297 413.039 324.468 413.029C324.98 413.036 325.478 413.196 325.898 413.489C326.264 413.724 326.6 414.002 326.898 414.319C327.395 414.867 327.761 415.52 327.968 416.229C328.231 416.87 328.231 417.589 327.968 418.229C327.866 417.611 327.726 417 327.548 416.399C327.304 415.784 326.94 415.223 326.478 414.749C326.205 414.479 325.899 414.244 325.568 414.049C325.25 413.841 324.886 413.714 324.508 413.679C324.455 413.68 324.404 413.697 324.361 413.727C324.319 413.757 324.286 413.8 324.268 413.849C324.214 413.981 324.214 414.128 324.268 414.259C324.463 414.581 324.698 414.877 324.968 415.139L326.338 416.729C326.806 417.167 327.201 417.677 327.508 418.239V418.239Z" fill="#263238"/>
<path d="M328.078 418.569C328.008 418.569 327.938 417.829 328.558 416.859C328.98 416.219 329.597 415.732 330.317 415.471C331.038 415.21 331.824 415.188 332.558 415.409C332.638 415.462 332.707 415.531 332.758 415.612C332.81 415.693 332.844 415.784 332.858 415.879C332.871 416.042 332.836 416.206 332.758 416.349C332.646 416.549 332.5 416.729 332.328 416.879C332.049 417.148 331.748 417.392 331.428 417.609C330.888 417.973 330.294 418.25 329.668 418.429C329.109 418.656 328.494 418.701 327.908 418.559C327.908 418.459 328.558 418.399 329.528 418.009C330.086 417.788 330.614 417.495 331.098 417.139C331.384 416.929 331.651 416.695 331.898 416.439C332.019 416.332 332.124 416.208 332.208 416.069C332.258 415.929 332.208 415.969 332.208 415.939C332.072 415.881 331.926 415.85 331.778 415.849C331.601 415.834 331.424 415.834 331.248 415.849C330.905 415.88 330.568 415.961 330.248 416.089C329.707 416.3 329.229 416.644 328.858 417.089C328.565 417.565 328.304 418.059 328.078 418.569V418.569Z" fill="#263238"/>
<path d="M314.318 420.589C314.373 420.919 314.329 421.258 314.191 421.563C314.053 421.868 313.828 422.125 313.544 422.302C313.261 422.478 312.931 422.567 312.596 422.556C312.262 422.545 311.938 422.436 311.667 422.241C311.395 422.046 311.187 421.775 311.069 421.462C310.951 421.149 310.929 420.808 311.005 420.482C311.081 420.157 311.252 419.861 311.497 419.632C311.741 419.404 312.048 419.253 312.378 419.199C312.819 419.13 313.27 419.237 313.633 419.497C313.996 419.757 314.242 420.149 314.318 420.589V420.589Z" fill="#E0E0E0"/>
<path d="M369.148 413.639L373.658 442.919L410.128 437.499C409.388 434.049 389.488 429.859 389.488 429.859L387.368 410.979L369.148 413.639Z" fill="#455A64"/>
<path d="M377.978 429.959C377.642 430.117 377.377 430.393 377.233 430.735C377.089 431.076 377.076 431.459 377.198 431.809C377.346 432.148 377.617 432.419 377.957 432.565C378.297 432.712 378.679 432.724 379.028 432.599C379.39 432.429 379.674 432.128 379.824 431.758C379.974 431.387 379.979 430.973 379.838 430.599C379.649 430.257 379.335 430.002 378.962 429.888C378.588 429.774 378.185 429.811 377.838 429.989" fill="#E0E0E0"/>
<path d="M373.658 442.919L373.318 439.919L408.408 435.829C408.408 435.829 410.138 436.299 410.128 437.469L373.658 442.919Z" fill="#E0E0E0"/>
<path d="M390.048 429.589C390.048 429.769 389.198 429.979 388.398 430.679C387.598 431.379 387.258 432.199 387.078 432.159C386.898 432.119 387.018 431.039 387.988 430.209C388.958 429.379 390.068 429.419 390.048 429.589Z" fill="#263238"/>
<path d="M394.108 430.599C394.178 430.769 393.448 431.179 392.958 432.029C392.468 432.879 392.408 433.689 392.228 433.709C392.048 433.729 391.788 432.709 392.418 431.709C393.048 430.709 394.078 430.429 394.108 430.599Z" fill="#263238"/>
<path d="M396.968 434.849C396.808 434.919 396.428 434.059 396.738 433.019C397.048 431.979 397.828 431.459 397.928 431.599C398.028 431.739 397.588 432.339 397.338 433.199C397.088 434.059 397.138 434.809 396.968 434.849Z" fill="#263238"/>
<path d="M389.088 425.339C389.088 425.509 388.188 425.389 387.188 425.599C386.188 425.809 385.458 426.259 385.338 426.119C385.218 425.979 385.888 425.229 387.058 424.989C388.228 424.749 389.158 425.179 389.088 425.339Z" fill="#263238"/>
<path d="M387.598 421.139C387.022 421.39 386.39 421.48 385.768 421.399C385.091 421.381 384.42 421.28 383.768 421.099C383.369 421.004 382.978 420.88 382.598 420.729C382.375 420.65 382.169 420.531 381.988 420.379C381.85 420.273 381.753 420.122 381.713 419.953C381.673 419.784 381.692 419.606 381.768 419.449C381.838 419.311 381.94 419.191 382.065 419.099C382.19 419.007 382.335 418.946 382.488 418.919C382.716 418.884 382.949 418.884 383.178 418.919C383.585 418.949 383.987 419.023 384.378 419.139C385.035 419.326 385.659 419.612 386.228 419.989C387.228 420.649 387.578 421.269 387.518 421.319C387.458 421.369 386.948 420.889 385.998 420.369C385.44 420.068 384.845 419.843 384.228 419.699C383.868 419.605 383.499 419.548 383.128 419.529C382.728 419.529 382.398 419.529 382.328 419.719C382.258 419.909 382.328 419.809 382.398 419.919C382.535 420.023 382.687 420.107 382.848 420.169C383.19 420.324 383.541 420.461 383.898 420.579C384.507 420.774 385.133 420.911 385.768 420.989C386.381 420.996 386.992 421.046 387.598 421.139V421.139Z" fill="#263238"/>
<path d="M387.388 421.429C387.328 421.429 386.878 420.879 386.638 419.739C386.529 419.077 386.529 418.402 386.638 417.739C386.702 417.338 386.803 416.943 386.938 416.559C386.998 416.307 387.121 416.075 387.296 415.884C387.471 415.694 387.692 415.551 387.938 415.469C388.1 415.449 388.265 415.474 388.414 415.543C388.563 415.612 388.689 415.722 388.778 415.859C388.904 416.062 389.001 416.28 389.068 416.509C389.19 416.908 389.251 417.323 389.248 417.739C389.248 418.437 389.076 419.124 388.748 419.739C388.178 420.739 387.468 421.109 387.448 421.049C387.428 420.989 387.938 420.539 388.348 419.549C388.586 418.98 388.696 418.366 388.668 417.749C388.658 417.392 388.594 417.038 388.478 416.699C388.368 416.319 388.178 416.029 388.038 416.089C387.898 416.149 387.588 416.449 387.488 416.779C387.352 417.122 387.249 417.477 387.178 417.839C387.064 418.456 387.038 419.085 387.098 419.709C387.188 420.729 387.478 421.389 387.388 421.429Z" fill="#263238"/>
<path d="M340.458 344.859L309.188 412.999L329.838 425.399L373.078 343.409" fill="#263238"/>
<path d="M392.028 426.949L369.598 430.549L356.168 350.409L289.818 355.219C288.063 355.341 286.3 355.176 284.598 354.729C265.968 349.619 268.488 325.859 270.288 322.049L362.098 319.419C366.908 319.279 371.6 320.92 375.276 324.025C378.952 327.131 381.352 331.483 382.018 336.249L392.028 426.949Z" fill="#263238"/>
<path d="M269.358 325.809L269.688 291.929C269.688 291.929 265.318 269.929 264.018 261.239C262.018 247.799 259.258 241.409 281.278 231.859L286.098 229.999L293.548 230.099C302.428 230.769 311.788 238.799 312.008 244.099L320.598 320.469L269.358 325.809Z" fill="#53B175"/>
<path d="M270.738 239.729C270.738 239.729 264.518 253.109 265.738 265.299L288.908 287.539C294.098 293.319 300.598 295.779 308.908 296.279L356.848 301.519L358.178 288.979L312.598 276.059C310.778 275.719 309.868 273.829 308.478 272.609L270.738 239.729Z" fill="#53B175"/>
<path d="M266.988 243.589C267.257 243.332 267.568 243.122 267.908 242.969C268.895 242.535 269.939 242.242 271.008 242.099C272.723 241.818 274.473 241.818 276.188 242.099C276.718 242.195 277.23 242.371 277.708 242.619C278.196 242.926 278.667 243.26 279.118 243.619C280.038 244.339 280.968 245.169 281.918 246.069C283.838 247.859 285.658 250.129 287.788 252.429C289.918 254.729 292.248 257.199 294.788 259.789C297.328 262.379 300.058 265.089 302.978 267.889C304.448 269.289 305.978 270.709 307.568 272.099C308.378 272.759 309.178 273.539 309.948 274.269C310.673 275.02 311.589 275.559 312.598 275.829V275.829L358.268 288.729L358.478 288.789V289.009C358.388 289.899 358.278 290.849 358.178 291.819C357.828 295.149 357.478 298.449 357.178 301.549V301.809H356.918L336.598 299.549L326.998 298.499L317.808 297.569C314.808 297.239 311.918 296.899 309.108 296.489C306.363 296.152 303.661 295.525 301.048 294.619C298.639 293.702 296.36 292.475 294.268 290.969C292.268 289.559 290.388 288.089 288.658 286.639C281.808 280.799 276.778 275.569 273.288 272.009C271.558 270.219 270.228 268.809 269.338 267.849L268.338 266.749L268.008 266.359C268.008 266.359 268.138 266.469 268.378 266.709C268.618 266.949 268.968 267.319 269.378 267.779L273.378 271.879C276.908 275.389 281.978 280.579 288.838 286.369C290.568 287.799 292.418 289.259 294.428 290.649C296.506 292.124 298.764 293.327 301.148 294.229C303.743 295.115 306.425 295.725 309.148 296.049C311.958 296.449 314.858 296.789 317.838 297.109L327.028 298.009L336.628 299.059L356.928 301.269L356.638 301.499C356.968 298.399 357.318 295.099 357.638 291.759C357.748 290.759 357.848 289.839 357.938 288.949L358.128 289.229L312.528 276.279C311.415 276.003 310.402 275.417 309.608 274.589C308.798 273.819 308.068 273.099 307.238 272.409C305.628 271.009 304.118 269.579 302.648 268.179C299.728 265.369 297.008 262.639 294.478 260.039C291.948 257.439 289.628 254.959 287.478 252.629C285.328 250.299 283.568 248.039 281.668 246.249C280.794 245.382 279.872 244.564 278.908 243.799C278.472 243.433 278.011 243.099 277.528 242.799C277.075 242.553 276.585 242.381 276.078 242.289C274.391 241.98 272.664 241.953 270.968 242.209C269.906 242.328 268.866 242.594 267.878 242.999C267.567 243.173 267.269 243.37 266.988 243.589Z" fill="#263238"/>
<path d="M278.958 200.609L281.278 233.609C281.463 236.204 282.624 238.632 284.528 240.404C286.432 242.176 288.937 243.161 291.538 243.159V243.159C292.944 243.16 294.336 242.871 295.627 242.312C296.917 241.753 298.08 240.935 299.041 239.908C300.003 238.882 300.744 237.669 301.218 236.345C301.692 235.02 301.89 233.613 301.798 232.209C301.588 229.069 301.408 226.499 301.408 226.499C301.408 226.499 309.408 225.259 309.488 217.269C309.548 212.659 308.748 202.199 308.068 194.179C307.844 191.56 306.643 189.12 304.704 187.345C302.764 185.57 300.227 184.59 297.598 184.599H292.768C290.801 184.719 288.878 185.231 287.112 186.105C285.346 186.98 283.773 188.199 282.486 189.691C281.199 191.184 280.224 192.918 279.618 194.794C279.012 196.669 278.787 198.646 278.958 200.609V200.609Z" fill="#FFBE9D"/>
<path d="M301.418 226.369C297.732 226.439 294.109 225.412 291.008 223.419C291.008 223.419 293.468 229.159 301.438 228.419L301.418 226.369Z" fill="#EB996E"/>
<path d="M306.278 204.429C306.281 204.727 306.167 205.013 305.962 205.228C305.756 205.443 305.475 205.569 305.178 205.579C305.034 205.593 304.89 205.578 304.752 205.535C304.614 205.492 304.487 205.421 304.377 205.328C304.267 205.235 304.177 205.121 304.112 204.992C304.047 204.863 304.008 204.723 303.998 204.579C303.995 204.281 304.108 203.993 304.313 203.777C304.519 203.56 304.8 203.432 305.098 203.419C305.388 203.397 305.675 203.491 305.897 203.68C306.118 203.87 306.255 204.139 306.278 204.429V204.429Z" fill="#263238"/>
<path d="M306.698 202.179C306.548 202.329 305.698 201.689 304.458 201.689C303.218 201.689 302.338 202.309 302.198 202.159C302.058 202.009 302.278 201.819 302.678 201.539C303.204 201.169 303.834 200.973 304.478 200.979C305.118 200.978 305.742 201.181 306.258 201.559C306.598 201.839 306.758 202.109 306.698 202.179Z" fill="#263238"/>
<path d="M294.758 204.429C294.763 204.727 294.651 205.015 294.445 205.231C294.239 205.446 293.956 205.571 293.658 205.579C293.514 205.593 293.37 205.578 293.232 205.535C293.094 205.492 292.967 205.421 292.857 205.328C292.747 205.235 292.657 205.121 292.592 204.992C292.527 204.863 292.488 204.723 292.478 204.579C292.475 204.281 292.588 203.993 292.793 203.777C292.999 203.56 293.28 203.432 293.578 203.419C293.868 203.397 294.155 203.491 294.377 203.68C294.598 203.87 294.735 204.139 294.758 204.429V204.429Z" fill="#263238"/>
<path d="M294.598 202.409C294.458 202.559 293.598 201.919 292.358 201.919C291.118 201.919 290.238 202.539 290.108 202.389C289.978 202.239 290.178 202.049 290.578 201.769C291.105 201.399 291.734 201.203 292.378 201.209C293.017 201.205 293.64 201.405 294.158 201.779C294.598 202.069 294.708 202.339 294.598 202.409Z" fill="#263238"/>
<path d="M299.088 211.509C299.737 211.307 300.409 211.186 301.088 211.149C301.398 211.149 301.698 211.049 301.748 210.839C301.781 210.515 301.707 210.188 301.538 209.909L300.598 207.529C299.736 205.509 299.04 203.423 298.518 201.289C299.533 203.236 300.396 205.259 301.098 207.339L301.978 209.739C302.178 210.116 302.238 210.552 302.148 210.969C302.102 211.081 302.031 211.18 301.941 211.259C301.851 211.339 301.744 211.397 301.628 211.429C301.455 211.474 301.277 211.498 301.098 211.499C300.431 211.587 299.756 211.59 299.088 211.509Z" fill="#263238"/>
<path d="M295.478 212.359C295.678 212.359 295.678 213.679 296.818 214.619C297.958 215.559 299.378 215.419 299.388 215.619C299.398 215.819 299.068 215.869 298.468 215.889C297.689 215.898 296.931 215.633 296.328 215.139C295.762 214.659 295.404 213.978 295.328 213.239C295.238 212.729 295.388 212.349 295.478 212.359Z" fill="#263238"/>
<path d="M294.948 197.599C294.828 197.929 293.608 197.779 292.168 197.949C290.728 198.119 289.558 198.519 289.368 198.219C289.178 197.919 289.488 197.759 289.958 197.439C290.583 197.041 291.291 196.791 292.028 196.71C292.765 196.628 293.511 196.717 294.208 196.969C294.738 197.179 295.008 197.439 294.948 197.599Z" fill="#263238"/>
<path d="M306.238 198.629C306.028 198.909 305.178 198.629 304.168 198.629C303.158 198.629 302.288 198.809 302.088 198.519C301.888 198.229 302.138 198.099 302.518 197.839C303.018 197.511 303.61 197.35 304.208 197.379C304.802 197.392 305.378 197.587 305.858 197.939C306.218 198.209 306.338 198.489 306.238 198.629Z" fill="#263238"/>
<path d="M281.648 206.609C281.508 206.549 276.158 204.979 276.338 210.439C276.518 215.899 281.948 214.599 281.958 214.439C281.968 214.279 281.648 206.609 281.648 206.609Z" fill="#FFBE9D"/>
<path d="M280.218 212.429C280.218 212.429 280.128 212.499 279.968 212.579C279.739 212.666 279.487 212.666 279.258 212.579C278.9 212.367 278.605 212.063 278.403 211.7C278.201 211.336 278.099 210.925 278.108 210.509C278.079 210.042 278.154 209.574 278.328 209.139C278.373 208.966 278.46 208.807 278.58 208.675C278.7 208.542 278.85 208.441 279.018 208.379C279.127 208.348 279.244 208.357 279.348 208.402C279.452 208.448 279.537 208.528 279.588 208.629C279.668 208.779 279.638 208.889 279.668 208.899C279.698 208.909 279.778 208.799 279.728 208.579C279.694 208.442 279.613 208.321 279.498 208.239C279.422 208.185 279.336 208.147 279.245 208.127C279.154 208.106 279.06 208.104 278.968 208.119C278.738 208.164 278.524 208.269 278.349 208.424C278.173 208.579 278.042 208.777 277.968 208.999C277.749 209.478 277.653 210.004 277.688 210.529C277.674 211.016 277.806 211.495 278.066 211.907C278.326 212.318 278.703 212.643 279.148 212.839C279.295 212.878 279.448 212.883 279.598 212.854C279.747 212.824 279.887 212.761 280.008 212.669C280.218 212.559 280.238 212.439 280.218 212.429Z" fill="#EB996E"/>
<path d="M278.598 206.419C279.117 206.386 279.636 206.493 280.099 206.731C280.562 206.969 280.952 207.328 281.228 207.769C281.578 208.549 281.658 209.429 282.008 210.209C282.159 210.61 282.435 210.952 282.795 211.184C283.155 211.416 283.58 211.527 284.008 211.499C284.291 211.41 284.546 211.248 284.747 211.028C284.947 210.809 285.085 210.54 285.148 210.249C285.263 209.668 285.263 209.07 285.148 208.489C284.828 205.939 284.298 203.419 284.198 200.849C283.984 198.271 284.545 195.687 285.808 193.429C286.448 192.311 287.379 191.386 288.503 190.754C289.626 190.122 290.899 189.806 292.188 189.839C293.888 189.979 295.438 190.839 297.128 191.099C298.131 191.231 299.151 191.132 300.111 190.812C301.07 190.491 301.945 189.957 302.668 189.249C302.987 188.981 303.321 188.73 303.668 188.499C303.646 187.896 303.448 187.312 303.098 186.819C299.748 183.719 293.728 182.819 289.308 183.969C287.063 184.523 284.965 185.558 283.161 187.003C281.356 188.449 279.888 190.269 278.858 192.339C276.958 196.479 277.518 202.229 278.568 206.419" fill="#263238"/>
<path d="M308.158 192.939C308.158 192.939 287.218 186.199 278.158 204.319C277.459 202.04 277.003 199.694 276.798 197.319C276.798 195.699 277.798 186.029 287.718 182.989C287.718 183.029 302.708 177.309 308.158 192.939Z" fill="#53B175"/>
<path d="M290.158 193.389C290.53 193.991 291.036 194.497 291.638 194.869C292.239 195.241 292.919 195.468 293.623 195.532C294.327 195.596 295.037 195.495 295.695 195.238C296.354 194.981 296.943 194.574 297.418 194.049C297.624 194.57 297.989 195.013 298.461 195.316C298.932 195.618 299.486 195.766 300.046 195.737C300.606 195.708 301.142 195.505 301.58 195.156C302.018 194.806 302.335 194.328 302.488 193.789C303.047 194.416 303.727 194.923 304.488 195.279C304.88 195.446 305.313 195.488 305.73 195.401C306.147 195.313 306.526 195.1 306.818 194.789C307.056 194.427 307.171 193.997 307.144 193.564C307.117 193.131 306.95 192.719 306.668 192.389C306.101 191.733 305.369 191.239 304.548 190.959C302.067 189.869 299.341 189.455 296.648 189.759C293.941 190.084 291.461 191.433 289.718 193.529" fill="#263238"/>
<g opacity="0.4">
<path opacity="0.4" d="M308.158 192.939C306.412 191.112 304.023 190.036 301.498 189.939C295.318 189.669 283.758 193.139 278.158 204.339C277.459 202.06 277.003 199.714 276.798 197.339C276.798 195.719 277.798 186.049 287.718 183.009C287.718 183.029 302.708 177.309 308.158 192.939Z" fill="black"/>
</g>
<path d="M279.028 202.199C282.203 197.47 286.365 193.486 291.228 190.519C296.048 187.519 304.008 184.519 309.488 183.079C311.114 182.542 312.836 182.361 314.538 182.549C315.386 182.657 316.186 183.001 316.848 183.542C317.509 184.083 318.005 184.8 318.278 185.609C318.798 187.679 315.128 190.869 313.398 192.119C311.71 193.248 309.96 194.283 308.158 195.219C308.158 195.219 308.208 191.379 302.068 190.589C293.718 189.519 279.028 202.199 279.028 202.199Z" fill="#53B175"/>
<g opacity="0.3">
<path opacity="0.3" d="M271.658 270.249C273.818 275.459 275.998 281.889 279.128 286.579C282.258 291.269 286.438 295.439 291.638 297.579C298.178 300.319 305.908 300.759 312.408 297.959C312.938 297.729 313.978 297.439 313.878 296.869C313.878 296.869 311.728 296.619 311.058 296.509C297.928 294.329 296.498 292.729 290.208 287.729C286.288 284.639 277.598 275.269 271.658 270.249Z" fill="black"/>
</g>
<path d="M313.418 308.189C313.285 308.617 313.1 309.027 312.868 309.409C312.285 310.491 311.573 311.498 310.748 312.409C307.965 315.327 304.465 317.461 300.598 318.599C296.744 319.697 292.764 320.292 288.758 320.369C287.228 320.429 285.988 320.439 285.138 320.439C284.694 320.458 284.249 320.438 283.808 320.379C284.241 320.279 284.684 320.229 285.128 320.229L288.738 319.999C292.701 319.816 296.63 319.179 300.448 318.099C304.249 316.969 307.707 314.906 310.508 312.099C311.6 310.891 312.574 309.582 313.418 308.189Z" fill="#263238"/>
<path d="M369.988 432.939C369.945 432.841 369.918 432.736 369.908 432.629C369.908 432.399 369.808 432.089 369.728 431.709C369.578 430.869 369.358 429.709 369.088 428.169C368.538 425.049 367.768 420.599 366.808 415.109C364.938 404.049 362.358 388.819 359.508 371.999C358.238 364.379 357.028 357.099 355.918 350.449L356.178 350.659L327.468 352.729L319.228 353.289L317.028 353.419H316.468H316.268H316.458L317.028 353.349L319.218 353.149L327.448 352.449L356.138 350.159H356.358V350.379C357.478 357.029 358.708 364.309 359.988 371.919C362.778 388.749 365.298 403.989 367.138 415.059C368.018 420.559 368.738 425.059 369.248 428.139L369.788 431.709C369.848 432.089 369.888 432.399 369.918 432.629C369.954 432.729 369.977 432.833 369.988 432.939V432.939Z" fill="#455A64"/>
<path d="M362.898 343.269C362.988 343.389 361.238 344.889 359.258 346.909C357.278 348.929 355.798 350.699 355.678 350.599C357.522 347.659 359.986 345.158 362.898 343.269V343.269Z" fill="#455A64"/>
<path d="M301.598 232.899C301.598 232.899 301.658 233.009 301.718 233.229C301.817 233.555 301.881 233.89 301.908 234.229C302.025 235.463 301.861 236.708 301.428 237.869C300.782 239.605 299.633 241.109 298.128 242.189C296.249 243.476 293.988 244.082 291.718 243.909C289.457 243.756 287.291 242.942 285.488 241.569C284.035 240.453 282.829 239.046 281.948 237.439C281.35 236.369 280.893 235.226 280.588 234.039C280.488 233.619 280.418 233.289 280.388 233.039C280.358 232.789 280.388 232.689 280.388 232.689C280.852 234.267 281.485 235.789 282.278 237.229C283.183 238.754 284.375 240.089 285.788 241.159C287.535 242.453 289.618 243.217 291.788 243.359C293.945 243.525 296.095 242.965 297.898 241.769C299.337 240.752 300.455 239.343 301.118 237.709C301.571 236.603 301.786 235.414 301.748 234.219C301.678 233.379 301.598 232.919 301.598 232.899Z" fill="#263238"/>
<path d="M315.708 276.569C315.594 276.246 315.52 275.91 315.488 275.569C315.378 274.779 315.248 273.819 315.088 272.709C314.758 270.159 314.328 266.879 313.858 263.249C313.388 259.619 313.048 256.249 312.858 253.769C312.748 252.559 312.678 251.569 312.638 250.889C312.59 250.538 312.59 250.181 312.638 249.829C312.742 250.154 312.813 250.49 312.848 250.829C312.958 251.619 313.088 252.569 313.238 253.689C313.558 256.239 313.968 259.519 314.418 263.149C314.868 266.779 315.258 270.149 315.498 272.619C315.608 273.839 315.688 274.819 315.738 275.509C315.769 275.863 315.759 276.218 315.708 276.569V276.569Z" fill="#263238"/>
</svg>
