<svg width="20" height="20" viewBox="0 0 20 20" fill="none" xmlns="http://www.w3.org/2000/svg">
<path d="M17.5 19.75H17.3725C2.635 18.9025 0.542502 6.4675 0.250003 2.6725C0.226434 2.37744 0.261319 2.08062 0.352659 1.79906C0.443998 1.5175 0.589997 1.25673 0.782291 1.03169C0.974584 0.80665 1.20939 0.621766 1.47326 0.48763C1.73713 0.353493 2.02487 0.272741 2.32 0.250001H6.4525C6.75292 0.24971 7.0465 0.339633 7.29523 0.508122C7.54395 0.676611 7.73635 0.915903 7.8475 1.195L8.9875 4C9.09727 4.27266 9.12451 4.57156 9.06584 4.85957C9.00717 5.14758 8.86518 5.412 8.6575 5.62L7.06 7.2325C7.30954 8.65056 7.98864 9.95775 9.00542 10.9772C10.0222 11.9967 11.3276 12.6792 12.745 12.9325L14.3725 11.32C14.5836 11.1146 14.8505 10.9759 15.14 10.9213C15.4294 10.8666 15.7285 10.8983 16 11.0125L18.8275 12.145C19.1024 12.2597 19.3369 12.4536 19.5012 12.702C19.6655 12.9504 19.7521 13.2422 19.75 13.54V17.5C19.75 18.0967 19.513 18.669 19.091 19.091C18.669 19.5129 18.0967 19.75 17.5 19.75ZM2.5 1.75C2.30109 1.75 2.11032 1.82902 1.96967 1.96967C1.82902 2.11032 1.75 2.30109 1.75 2.5V2.56C2.095 7 4.3075 17.5 17.455 18.25C17.5535 18.2561 17.6523 18.2427 17.7456 18.2105C17.839 18.1783 17.925 18.1281 17.9989 18.0626C18.0727 17.9971 18.1329 17.9176 18.176 17.8288C18.2191 17.74 18.2443 17.6436 18.25 17.545V13.54L15.4225 12.4075L13.27 14.545L12.91 14.5C6.385 13.6825 5.5 7.1575 5.5 7.09L5.455 6.73L7.585 4.5775L6.46 1.75H2.5Z" fill="#181725"/>
</svg>
